<?xml version="1.0" standalone="no"?>
<!DOCTYPE svg PUBLIC "-//W3C//DTD SVG 20010904//EN"
 "http://www.w3.org/TR/2001/REC-SVG-20010904/DTD/svg10.dtd">
<svg version="1.0" xmlns="http://www.w3.org/2000/svg"
 width="300.000000pt" height="299.000000pt" viewBox="0 0 300.000000 299.000000"
 preserveAspectRatio="xMidYMid meet">
<metadata>
Created by potrace 1.10, written by Peter Selinger 2001-2011
</metadata>
<g transform="translate(0.000000,299.000000) scale(0.100000,-0.100000)"
fill="#000000" stroke="none">
<path d="M1312 2880 c-137 -19 -333 -80 -453 -140 -109 -55 -249 -159 -355
-265 -202 -201 -321 -420 -387 -713 -29 -128 -31 -410 -4 -544 134 -668 710
-1148 1379 -1148 l96 0 6 28 c3 15 6 50 7 77 2 28 4 55 7 62 6 18 80 43 131
46 44 2 45 1 54 -36 5 -21 6 -58 2 -83 -7 -50 -26 -63 -93 -65 -20 -1 -48 -5
-62 -10 -27 -9 85 -3 139 7 27 6 29 9 33 68 3 33 1 71 -3 84 -6 15 -5 22 3 22
7 0 4 6 -5 13 -17 12 -81 167 -114 277 -9 30 -18 48 -20 38 -2 -9 3 -32 11
-52 8 -20 12 -36 8 -36 -13 1 -46 30 -33 30 8 0 4 11 -10 31 -13 19 -18 34
-12 38 7 4 5 18 -4 41 l-13 35 4 -39 c5 -36 4 -37 -13 -22 -10 9 -22 16 -27
16 -5 0 -4 -4 2 -8 14 -9 64 -77 64 -86 0 -14 -32 11 -51 40 -11 18 -19 23
-19 13 0 -16 32 -48 91 -92 20 -14 39 -35 42 -47 4 -17 0 -20 -32 -20 -20 0
-47 7 -59 16 -12 8 -22 11 -22 5 0 -17 37 -31 83 -31 40 0 45 -3 49 -25 3 -13
0 -26 -6 -29 -6 -2 -2 -5 9 -5 17 -1 17 -3 5 -11 -13 -8 -12 -10 3 -10 37 0
14 -17 -40 -30 -65 -14 -101 -29 -70 -30 25 0 21 -15 -8 -28 -22 -10 -25 -9
-25 9 0 11 -4 18 -9 15 -4 -3 -83 -6 -175 -7 -91 0 -166 -5 -166 -9 0 -5 -3
-17 -7 -27 -6 -17 -5 -17 13 -1 14 12 30 15 60 11 25 -3 44 -1 48 6 4 6 14 11
22 11 8 0 13 -4 9 -9 -3 -6 13 -8 40 -6 40 4 45 2 45 -15 0 -21 -28 -27 -116
-22 -49 3 -65 -17 -28 -35 15 -7 24 -7 24 -1 0 6 19 9 44 7 24 -2 42 -1 40 2
-2 4 9 9 25 12 16 3 29 12 28 19 -1 40 3 49 20 39 11 -6 24 -6 35 0 13 7 20 4
28 -11 9 -16 8 -21 -5 -25 -8 -3 -22 -7 -30 -10 -8 -2 -15 -11 -15 -20 0 -18
30 -21 30 -2 0 6 5 4 11 -6 5 -9 7 -23 2 -30 -4 -6 -6 -22 -4 -34 2 -20 -2
-23 -36 -24 -73 -2 -98 2 -128 23 -16 11 -24 15 -17 7 20 -22 14 -29 -26 -29
-55 0 -76 18 -70 62 4 38 -10 58 -39 58 -16 0 -15 -3 4 -18 20 -15 22 -22 15
-59 -7 -41 -8 -42 -31 -30 -23 11 -25 17 -22 70 2 57 2 58 -70 152 -40 53 -74
94 -76 92 -2 -2 4 -20 12 -40 8 -20 15 -60 16 -89 0 -29 3 -47 6 -40 5 13 51
16 69 4 6 -4 13 -15 17 -25 7 -18 -4 -21 -90 -17 -24 1 -43 -3 -43 -9 0 -13
90 -26 99 -15 8 12 31 16 32 7 10 -67 9 -72 -16 -69 -13 1 -30 7 -37 13 -7 6
-35 13 -62 17 -27 3 -59 12 -70 20 -12 7 -36 17 -54 20 -17 4 -36 15 -42 24
-7 14 -9 14 -10 2 0 -10 -5 -8 -15 7 -8 12 -29 25 -47 28 -41 9 -130 64 -122
76 3 5 -2 9 -10 9 -9 0 -16 7 -16 15 0 14 -12 20 -34 16 -15 -3 -56 49 -56 71
0 16 -3 18 -14 9 -10 -8 -16 -9 -21 -1 -3 6 -10 8 -15 5 -15 -9 -23 17 -9 27
11 8 11 9 -3 5 -9 -3 -23 2 -32 12 -21 23 -20 30 2 25 9 -2 40 -6 67 -9 99 -9
116 -15 122 -46 3 -16 9 -29 14 -29 5 0 9 -9 9 -20 0 -13 5 -18 15 -14 10 4
13 -1 12 -22 -2 -25 1 -27 41 -30 23 -1 42 2 42 8 0 6 12 8 27 5 43 -8 53 1
53 49 0 45 -4 51 -30 34 -10 -6 -11 -10 -3 -10 8 0 11 -9 9 -22 -3 -19 -10
-23 -40 -23 -20 0 -36 -4 -36 -8 0 -5 -4 -6 -9 -3 -5 4 -11 0 -14 -6 -3 -10
-8 -10 -18 1 -11 10 -11 15 -2 18 18 7 -7 43 -29 43 -10 0 -18 7 -18 15 0 8
-8 27 -18 43 -14 24 -20 27 -34 18 -14 -8 -20 -7 -30 7 -10 13 -25 16 -66 14
-29 -2 -55 0 -58 5 -3 4 -14 8 -24 8 -25 0 -37 24 -32 61 4 26 8 29 42 29 28
0 39 -5 48 -23 10 -21 11 -21 11 -1 1 11 4 24 8 27 12 12 31 -13 27 -36 -3
-15 -1 -13 7 6 16 40 42 31 50 -16 3 -20 2 -37 -3 -37 -4 0 -8 -4 -8 -10 0 -5
7 -10 15 -10 9 0 15 9 15 22 0 20 3 19 30 -12 16 -19 32 -43 35 -52 7 -20 31
-24 37 -7 2 5 24 15 48 20 41 9 46 8 59 -10 19 -30 31 -26 31 9 l0 30 -92 0
-93 0 -27 44 c-16 24 -28 46 -28 50 0 3 54 6 120 6 l120 0 0 86 c0 74 -2 85
-16 80 -9 -3 -18 -6 -20 -6 -2 0 -4 -11 -4 -24 0 -14 -4 -28 -10 -31 -6 -3
-10 -11 -10 -17 0 -6 8 -3 19 6 18 16 19 16 26 -11 9 -38 -23 -63 -79 -63
l-41 1 24 19 c22 19 22 20 3 20 -12 0 -25 -6 -29 -14 -11 -21 -53 -27 -163
-26 -92 0 -145 6 -162 16 -4 3 -8 -18 -8 -45 0 -50 -13 -68 -24 -33 -3 9 -17
29 -30 43 -30 33 -55 80 -49 97 3 7 -3 12 -14 12 -30 0 -54 57 -44 103 5 21 5
37 0 37 -5 0 -12 -12 -15 -26 -17 -65 -47 65 -33 145 6 37 5 59 -3 68 -18 22
-27 14 -22 -20 3 -17 1 -43 -4 -56 -8 -23 -10 -21 -22 25 -7 27 -14 58 -16 69
-2 11 -10 44 -18 73 -9 30 -17 79 -20 110 -2 32 -8 65 -11 75 -6 13 -2 17 18
17 31 0 43 -16 27 -35 -17 -20 8 -31 28 -12 12 13 13 19 2 31 -10 13 -9 20 4
41 9 13 16 36 16 50 0 52 14 62 106 75 l87 13 -24 18 c-13 10 -38 19 -56 19
-17 0 -35 5 -38 10 -3 6 -10 10 -15 10 -9 0 -25 -40 -22 -54 2 -5 -5 -5 -15
-1 -36 15 -48 11 -48 -17 -1 -20 -11 -34 -38 -53 -21 -14 -41 -25 -44 -25 -7
0 5 121 13 129 9 9 22 -21 17 -38 -4 -11 -3 -13 4 -6 6 6 13 23 17 39 7 27 5
28 -19 22 -21 -5 -25 -3 -25 14 0 11 6 20 14 20 7 0 31 12 52 26 32 22 46 25
84 21 32 -4 39 -3 23 3 -30 12 -29 24 5 49 l27 20 -32 1 c-18 0 -32 -3 -31 -7
0 -5 -4 -19 -10 -33 -6 -14 -11 -19 -11 -12 -1 6 -6 12 -12 12 -5 0 -7 -4 -4
-10 3 -5 2 -10 -3 -10 -6 0 -14 12 -18 28 -8 27 -10 46 -13 115 0 23 -5 36
-11 32 -6 -3 -10 -2 -10 4 0 5 5 13 10 16 6 3 10 13 10 21 0 9 12 46 26 82 14
37 30 79 36 95 11 29 28 37 28 12 0 -8 4 -23 9 -33 6 -9 13 -39 17 -67 6 -45
7 -47 16 -25 5 13 14 28 21 32 8 5 8 8 1 8 -6 0 -16 19 -23 43 -7 23 -16 53
-20 67 -8 27 5 80 20 80 5 0 10 -10 11 -22 2 -33 1 -41 -7 -63 -5 -12 4 -6 23
15 29 34 29 36 13 60 -20 29 -17 60 6 60 10 0 13 6 9 16 -9 22 13 47 29 34 15
-12 10 -113 -6 -119 -7 -2 3 -10 21 -17 39 -17 52 -10 24 11 -16 13 -17 16 -4
24 20 14 24 65 4 57 -16 -6 -19 10 -3 19 6 4 8 22 4 45 -7 39 7 80 26 80 6 0
8 -9 4 -20 -4 -11 -2 -20 4 -20 6 0 11 17 11 38 0 30 7 45 33 70 35 34 52 40
60 20 4 -9 6 -7 6 3 1 9 10 24 20 33 15 14 24 15 40 6 17 -9 21 -8 21 5 0 8
-7 15 -16 15 -23 0 -11 24 14 28 13 2 24 13 27 25 3 12 19 30 35 39 34 19 36
17 16 -15 -17 -27 -28 -87 -15 -87 5 0 9 5 9 11 0 5 4 7 10 4 6 -3 10 1 10 10
0 9 -4 13 -10 10 -6 -3 -10 1 -10 9 0 8 9 20 20 26 11 6 20 21 20 34 0 13 7
29 15 36 13 10 15 9 15 -10 0 -25 -41 -149 -76 -227 -12 -28 -27 -78 -34 -110
-6 -32 -13 -69 -16 -83 -4 -17 -2 -22 5 -15 6 6 17 42 25 80 8 39 26 90 39
115 13 25 37 90 52 145 38 140 41 145 69 145 14 0 28 5 32 11 3 6 15 9 25 6
11 -3 17 -2 15 2 -3 4 11 14 30 23 32 15 36 15 41 0 5 -12 8 -11 14 6 10 26
36 29 42 5 3 -11 5 -7 6 10 0 16 5 26 10 23 5 -3 14 1 21 9 15 18 30 10 30
-16 0 -18 9 -19 214 -19 l215 0 3 48 c3 43 5 47 31 50 27 3 27 3 27 -53 0 -48
3 -56 16 -51 9 3 23 6 32 7 13 0 11 3 -5 11 -24 11 -32 38 -12 38 8 0 8 5 -1
15 -10 12 -10 15 3 15 9 0 18 -8 20 -17 4 -16 5 -16 6 1 1 15 6 17 32 12 17
-3 37 -6 44 -6 8 0 13 -18 13 -55 0 -38 -3 -55 -12 -53 -6 2 -12 -1 -12 -7 0
-5 6 -9 13 -7 7 2 13 -4 13 -13 0 -8 -7 -15 -15 -15 -8 0 -15 -7 -15 -16 0
-10 6 -14 15 -10 8 3 15 1 15 -4 0 -19 -5 -25 -17 -22 -7 2 -13 -4 -13 -13 0
-11 6 -15 18 -11 16 6 19 0 19 -39 l0 -45 -56 0 c-41 0 -52 -3 -44 -11 14 -14
73 -20 73 -8 0 5 10 9 21 9 19 0 21 4 14 38 -5 26 -3 34 4 26 15 -14 46 -620
42 -824 -1 -77 6 -91 47 -92 21 -1 29 -5 25 -15 -3 -7 0 -19 6 -27 6 -7 8 -16
4 -19 -3 -4 -1 -7 5 -7 7 0 12 6 12 13 0 18 75 20 90 1 16 -18 44 -19 37 0 -7
18 12 36 39 36 13 0 25 4 29 10 6 10 -47 6 -66 -6 -9 -5 -10 -2 -6 9 8 21 -10
32 -47 28 -18 -2 -26 1 -22 8 4 6 2 11 -3 11 -6 0 -11 -3 -11 -7 0 -8 -32 -13
-90 -17 -23 -1 -25 3 -32 59 -7 50 -5 62 8 72 10 7 14 19 10 28 -7 19 -25 404
-27 604 -2 134 -1 145 17 152 10 5 37 22 59 38 22 16 66 45 97 65 55 33 59 34
88 20 29 -15 30 -18 30 -81 0 -62 -1 -65 -22 -60 -13 3 -32 1 -43 -3 -22 -10
-16 -12 35 -14 30 -1 35 -5 36 -26 1 -14 5 -122 9 -240 4 -118 9 -226 10 -240
2 -14 4 -29 4 -33 1 -5 6 -5 12 -1 7 4 9 25 4 62 -16 130 -4 235 26 216 5 -3
9 0 9 5 0 14 -23 14 -36 1 -8 -8 -13 50 -17 187 -6 177 -3 232 10 196 3 -7 11
-13 19 -13 8 0 14 -10 14 -25 0 -21 3 -24 28 -19 21 4 38 -3 75 -31 26 -20 47
-41 47 -46 0 -6 6 -9 12 -7 22 8 35 -16 41 -71 3 -29 9 -56 13 -60 4 -3 4 12
1 35 -4 22 -4 44 -1 47 12 12 64 -37 64 -59 0 -13 5 -26 10 -29 6 -3 10 -2 10
4 0 6 6 8 14 5 15 -6 30 -34 22 -42 -10 -10 -75 29 -81 49 -5 16 -10 18 -18
10 -8 -8 -4 -18 16 -37 15 -13 27 -31 27 -39 0 -17 31 -20 47 -4 13 13 44 9
45 -6 0 -5 9 -22 19 -37 10 -14 19 -42 19 -62 0 -26 4 -36 15 -36 11 0 14 7 9
25 -3 14 -2 25 4 25 15 0 22 -26 22 -81 0 -54 19 -69 21 -16 1 21 3 25 6 12 3
-11 11 -24 19 -30 22 -17 23 -84 1 -147 -11 -32 -24 -58 -28 -58 -5 0 -9 -9
-9 -20 0 -13 -7 -20 -19 -20 -22 0 -31 -19 -31 -62 0 -19 4 -28 13 -25 7 2 11
19 10 41 -2 26 1 36 10 33 13 -4 23 -87 10 -87 -4 0 -39 -5 -78 -10 -38 -5
-101 -12 -140 -15 -38 -4 -99 -11 -135 -16 -36 -5 -70 -9 -77 -9 -6 0 -14 18
-18 40 -6 33 -11 40 -30 40 -21 0 -22 -3 -17 -47 2 -27 5 -48 6 -49 0 -1 37 3
81 8 44 5 112 10 150 13 39 2 78 7 88 11 9 3 24 1 32 -6 9 -7 15 -8 15 -2 0
12 83 25 148 24 70 -2 107 34 61 58 -26 15 -34 7 -19 -19 9 -18 8 -21 -10 -21
-17 0 -20 6 -20 44 0 26 5 46 13 49 9 4 9 8 -2 15 -11 8 -9 21 9 73 27 78 27
77 45 53 10 -13 14 -44 14 -98 -1 -62 2 -81 15 -88 21 -12 21 -39 1 -32 -9 4
-15 0 -15 -10 0 -13 4 -14 25 -4 20 9 25 19 26 52 l1 41 9 -35 c5 -19 11 -53
14 -75 2 -22 9 -69 15 -105 6 -36 11 -75 12 -87 1 -13 8 -25 16 -28 10 -4 12
2 8 23 -3 15 -8 52 -11 82 -16 139 -92 357 -170 489 -213 361 -538 597 -935
681 -117 25 -368 35 -478 20z m231 -34 c4 -9 2 -16 -3 -16 -5 0 -11 -9 -15
-19 -4 -15 -13 -19 -38 -16 -18 2 -83 4 -146 4 -102 1 -113 3 -107 18 6 16 6
16 -12 0 -20 -18 -57 -23 -66 -8 -14 22 106 45 265 49 99 3 117 1 122 -12z
m272 -26 c-4 -14 -2 -20 8 -20 9 0 17 6 20 13 3 10 11 10 39 0 19 -7 46 -13
61 -13 38 0 34 -11 -20 -47 -27 -17 -67 -45 -90 -62 -23 -18 -43 -28 -45 -24
-4 7 -3 124 1 161 0 6 8 12 17 12 11 0 14 -6 9 -20z m180 -77 l-30 -26 38 21
c20 12 37 19 37 17 0 -10 -52 -38 -73 -39 -12 -1 -21 -8 -19 -15 1 -7 -2 -9
-8 -6 -6 4 -17 0 -23 -8 -13 -17 -127 -80 -127 -71 0 15 22 44 35 44 8 0 18 6
22 14 15 25 128 96 153 96 l25 -1 -30 -26z m802 -825 c-3 -7 -5 -2 -5 12 0 14
2 19 5 13 2 -7 2 -19 0 -25z m-2626 -125 c1 -27 3 -63 5 -82 5 -40 -10 -61
-40 -61 -20 0 -22 4 -18 33 2 17 11 39 19 49 8 9 13 29 12 45 -3 43 0 63 11
63 6 0 11 -21 11 -47z m2026 15 c-3 -8 -6 -5 -6 6 -1 11 2 17 5 13 3 -3 4 -12
1 -19z m-198 -124 c17 -4 28 -10 25 -15 -3 -5 -16 -6 -29 -3 -13 3 -33 0 -45
-6 -28 -15 -41 -3 -16 16 23 16 23 16 65 8z m41 -39 c0 -8 -4 -15 -10 -15 -5
0 -10 7 -10 15 0 8 5 15 10 15 6 0 10 -7 10 -15z m-1730 -95 c0 -5 -9 -10 -20
-10 -11 0 -20 5 -20 10 0 6 9 10 20 10 11 0 20 -4 20 -10z m-110 -94 c-1 -17
-33 -54 -50 -56 -49 -7 -54 17 -10 54 30 24 60 26 60 2z m943 -1174 c-19 -5
-33 16 -26 36 5 11 10 9 24 -9 16 -21 16 -24 2 -27z m627 29 c0 -8 -100 -24
-108 -16 -6 5 57 23 86 24 12 1 22 -3 22 -8z"/>
<path d="M1718 2783 c7 -3 16 -2 19 1 4 3 -2 6 -13 5 -11 0 -14 -3 -6 -6z"/>
<path d="M1120 2740 c0 -11 5 -20 10 -20 6 0 10 9 10 20 0 11 -4 20 -10 20 -5
0 -10 -9 -10 -20z"/>
<path d="M1072 2730 c-1 -14 5 -36 13 -50 13 -23 14 -23 15 -4 0 11 -4 24 -9
30 -5 5 -11 18 -14 29 -4 16 -5 15 -5 -5z"/>
<path d="M1160 2735 c0 -8 5 -15 10 -15 6 0 10 7 10 15 0 8 -4 15 -10 15 -5 0
-10 -7 -10 -15z"/>
<path d="M1206 2735 c4 -8 10 -15 15 -15 5 0 9 7 9 15 0 8 -7 15 -15 15 -9 0
-12 -6 -9 -15z"/>
<path d="M1252 2738 c6 -18 28 -21 28 -4 0 9 -7 16 -16 16 -9 0 -14 -5 -12
-12z"/>
<path d="M1300 2735 c0 -8 7 -15 15 -15 8 0 15 7 15 15 0 8 -7 15 -15 15 -8 0
-15 -7 -15 -15z"/>
<path d="M1352 2741 c2 -7 7 -12 11 -12 12 1 9 15 -3 20 -7 2 -11 -2 -8 -8z"/>
<path d="M1400 2734 c0 -17 22 -14 28 4 2 7 -3 12 -12 12 -9 0 -16 -7 -16 -16z"/>
<path d="M1450 2735 c0 -8 5 -15 10 -15 6 0 10 7 10 15 0 8 -4 15 -10 15 -5 0
-10 -7 -10 -15z"/>
<path d="M1492 2738 c6 -18 28 -21 28 -4 0 9 -7 16 -16 16 -9 0 -14 -5 -12
-12z"/>
<path d="M1542 2738 c6 -18 28 -21 28 -4 0 9 -7 16 -16 16 -9 0 -14 -5 -12
-12z"/>
<path d="M1640 2735 c0 -9 5 -15 11 -13 6 2 11 8 11 13 0 5 -5 11 -11 13 -6 2
-11 -4 -11 -13z"/>
<path d="M1690 2735 c0 -8 5 -15 10 -15 6 0 10 7 10 15 0 8 -4 15 -10 15 -5 0
-10 -7 -10 -15z"/>
<path d="M1120 2690 c0 -5 5 -10 10 -10 6 0 10 5 10 10 0 6 -4 10 -10 10 -5 0
-10 -4 -10 -10z"/>
<path d="M1160 2684 c0 -9 5 -14 12 -12 18 6 21 28 4 28 -9 0 -16 -7 -16 -16z"/>
<path d="M1210 2685 c0 -8 5 -15 10 -15 6 0 10 7 10 15 0 8 -4 15 -10 15 -5 0
-10 -7 -10 -15z"/>
<path d="M1260 2685 c0 -8 5 -15 10 -15 6 0 10 7 10 15 0 8 -4 15 -10 15 -5 0
-10 -7 -10 -15z"/>
<path d="M1307 2694 c-8 -8 1 -24 14 -24 5 0 9 7 9 15 0 15 -12 20 -23 9z"/>
<path d="M1350 2685 c0 -8 7 -15 15 -15 8 0 15 7 15 15 0 8 -7 15 -15 15 -8 0
-15 -7 -15 -15z"/>
<path d="M1400 2685 c0 -9 5 -15 11 -13 6 2 11 8 11 13 0 5 -5 11 -11 13 -6 2
-11 -4 -11 -13z"/>
<path d="M1450 2685 c0 -8 5 -15 10 -15 6 0 10 7 10 15 0 8 -4 15 -10 15 -5 0
-10 -7 -10 -15z"/>
<path d="M1500 2685 c0 -8 5 -15 10 -15 6 0 10 7 10 15 0 8 -4 15 -10 15 -5 0
-10 -7 -10 -15z"/>
<path d="M1540 2685 c0 -8 7 -15 15 -15 8 0 15 7 15 15 0 8 -7 15 -15 15 -8 0
-15 -7 -15 -15z"/>
<path d="M1640 2685 c0 -8 7 -15 15 -15 8 0 15 7 15 15 0 8 -7 15 -15 15 -8 0
-15 -7 -15 -15z"/>
<path d="M1690 2685 c0 -8 5 -15 10 -15 6 0 10 7 10 15 0 8 -4 15 -10 15 -5 0
-10 -7 -10 -15z"/>
<path d="M1000 2676 c0 -3 11 -17 25 -32 26 -28 35 -13 11 19 -12 15 -36 24
-36 13z"/>
<path d="M1954 2661 c-11 -11 -2 -23 15 -18 10 2 25 1 32 -4 7 -4 18 -5 24 -1
5 3 17 7 25 7 8 1 25 2 38 3 12 1 22 6 22 10 0 9 -147 11 -156 3z"/>
<path d="M1162 2641 c4 -13 18 -16 19 -4 0 4 -5 9 -11 12 -7 2 -11 -2 -8 -8z"/>
<path d="M1210 2634 c0 -17 22 -14 28 4 2 7 -3 12 -12 12 -9 0 -16 -7 -16 -16z"/>
<path d="M1260 2635 c0 -8 5 -15 10 -15 6 0 10 7 10 15 0 8 -4 15 -10 15 -5 0
-10 -7 -10 -15z"/>
<path d="M1310 2635 c0 -8 5 -15 10 -15 6 0 10 7 10 15 0 8 -4 15 -10 15 -5 0
-10 -7 -10 -15z"/>
<path d="M1352 2639 c2 -6 8 -10 13 -10 5 0 11 4 13 10 2 6 -4 11 -13 11 -9 0
-15 -5 -13 -11z"/>
<path d="M1400 2635 c0 -8 7 -15 15 -15 8 0 15 7 15 15 0 8 -7 15 -15 15 -8 0
-15 -7 -15 -15z"/>
<path d="M1450 2635 c0 -9 5 -15 11 -13 6 2 11 8 11 13 0 5 -5 11 -11 13 -6 2
-11 -4 -11 -13z"/>
<path d="M1500 2635 c0 -8 5 -15 10 -15 6 0 10 7 10 15 0 8 -4 15 -10 15 -5 0
-10 -7 -10 -15z"/>
<path d="M1547 2644 c-8 -8 1 -24 14 -24 5 0 9 7 9 15 0 15 -12 20 -23 9z"/>
<path d="M1640 2636 c0 -9 7 -16 16 -16 9 0 14 5 12 12 -6 18 -28 21 -28 4z"/>
<path d="M1690 2635 c0 -9 5 -15 11 -13 6 2 11 8 11 13 0 5 -5 11 -11 13 -6 2
-11 -4 -11 -13z"/>
<path d="M2181 2551 c-1 -87 7 -110 10 -28 2 40 5 46 26 49 13 2 23 8 23 13 0
10 -3 11 -34 14 -8 0 -17 9 -19 19 -3 9 -5 -21 -6 -67z"/>
<path d="M1075 2610 c-3 -5 -3 -15 0 -21 4 -6 -3 -18 -16 -27 -56 -38 -355
-329 -347 -337 4 -4 61 46 128 112 67 65 125 119 129 121 4 1 13 -84 20 -190
14 -228 30 -447 36 -503 2 -22 4 -48 4 -57 1 -10 6 -18 12 -18 6 0 8 11 5 28
-3 15 -11 108 -17 207 -6 99 -16 263 -23 365 l-12 185 53 54 c35 35 49 57 42
62 -6 4 -8 12 -5 18 4 6 5 11 2 11 -3 0 -8 -4 -11 -10z"/>
<path d="M1106 2605 c4 -8 10 -15 15 -15 5 0 9 7 9 15 0 8 -7 15 -15 15 -9 0
-12 -6 -9 -15z"/>
<path d="M2008 2595 c-4 -17 -1 -25 8 -25 8 0 16 -11 20 -25 6 -25 28 -33 39
-15 3 6 0 10 -8 10 -8 0 -22 18 -31 40 -9 22 -18 40 -20 40 -2 0 -6 -11 -8
-25z"/>
<path d="M1160 2585 c0 -8 7 -15 15 -15 8 0 15 7 15 15 0 8 -7 15 -15 15 -8 0
-15 -7 -15 -15z"/>
<path d="M1212 2591 c4 -13 18 -16 19 -4 0 4 -5 9 -11 12 -7 2 -11 -2 -8 -8z"/>
<path d="M1260 2585 c0 -9 5 -15 11 -13 6 2 11 8 11 13 0 5 -5 11 -11 13 -6 2
-11 -4 -11 -13z"/>
<path d="M1310 2585 c0 -8 5 -15 10 -15 6 0 10 7 10 15 0 8 -4 15 -10 15 -5 0
-10 -7 -10 -15z"/>
<path d="M1352 2588 c6 -18 28 -21 28 -4 0 9 -7 16 -16 16 -9 0 -14 -5 -12
-12z"/>
<path d="M1407 2594 c-8 -8 1 -24 14 -24 5 0 9 7 9 15 0 15 -12 20 -23 9z"/>
<path d="M1450 2585 c0 -8 7 -15 15 -15 8 0 15 7 15 15 0 8 -7 15 -15 15 -8 0
-15 -7 -15 -15z"/>
<path d="M1500 2585 c0 -8 5 -15 10 -15 6 0 10 7 10 15 0 8 -4 15 -10 15 -5 0
-10 -7 -10 -15z"/>
<path d="M1550 2587 c0 -19 59 -42 73 -28 8 8 4 11 -16 11 -15 0 -30 7 -33 15
-7 18 -24 20 -24 2z"/>
<path d="M1646 2585 c4 -8 10 -15 15 -15 5 0 9 7 9 15 0 8 -7 15 -15 15 -9 0
-12 -6 -9 -15z"/>
<path d="M1690 2585 c0 -9 5 -15 11 -13 6 2 11 8 11 13 0 5 -5 11 -11 13 -6 2
-11 -4 -11 -13z"/>
<path d="M1740 2585 c0 -8 5 -15 10 -15 6 0 10 7 10 15 0 8 -4 15 -10 15 -5 0
-10 -7 -10 -15z"/>
<path d="M2255 2538 c4 -13 9 -40 12 -60 3 -21 8 -38 12 -38 8 0 5 64 -5 98
-3 12 -11 22 -16 22 -6 0 -7 -9 -3 -22z"/>
<path d="M1342 2543 l-184 -3 6 -48 c9 -72 15 -177 27 -417 6 -121 12 -231 14
-245 2 -14 4 -47 4 -75 1 -39 4 -46 12 -32 5 9 19 17 30 17 11 0 17 5 14 10
-3 6 -15 10 -26 10 -29 0 -23 17 12 29 39 14 52 6 44 -26 -5 -21 -3 -24 10
-19 9 3 21 6 27 6 7 0 7 5 -1 13 -14 18 -4 27 31 27 30 0 36 11 14 29 -17 14
-69 -6 -59 -22 3 -6 1 -7 -5 -3 -7 4 -8 17 -1 39 5 17 9 49 9 69 0 21 5 38 11
38 6 0 9 6 6 14 -3 8 0 16 6 19 15 5 188 -1 195 -7 16 -16 -20 -26 -93 -26
-64 0 -84 -3 -89 -15 -4 -10 1 -15 14 -15 12 0 20 -7 20 -18 0 -9 9 -23 21
-30 17 -11 20 -20 15 -48 -4 -19 -3 -34 2 -34 5 0 9 6 10 13 1 6 4 34 7 60 3
32 2 46 -5 42 -5 -3 -10 -2 -10 3 0 15 22 20 50 11 l25 -7 -25 -2 c-25 -1 -25
-1 -2 -10 12 -5 22 -15 22 -22 0 -24 18 7 22 37 2 19 9 31 21 33 17 3 18 -3
16 -60 -2 -34 -9 -74 -16 -88 -16 -31 -16 -50 -1 -50 6 0 8 -3 5 -7 -4 -3 -2
-12 4 -19 19 -23 -1 -37 -42 -31 -22 3 -39 1 -39 -4 0 -10 2 -10 38 -14 28 -3
47 -19 38 -34 -9 -14 -56 -15 -56 -1 0 6 -7 10 -15 10 -17 0 -19 -18 -5 -40 8
-13 14 -13 42 -1 18 7 41 13 51 13 18 -1 19 18 15 454 -2 373 -5 453 -16 449
-8 -3 -15 -5 -17 -5 -3 0 4 -126 10 -172 l5 -38 -89 0 c-53 0 -93 -4 -96 -11
-5 -7 8 -9 39 -6 54 4 66 -5 34 -27 -12 -9 -19 -18 -16 -21 3 -3 12 0 20 8 24
24 54 36 76 30 12 -3 22 -8 22 -12 0 -3 3 -53 5 -111 4 -66 2 -98 -4 -85 -26
59 -77 66 -126 18 -27 -28 -32 -49 -13 -55 26 -9 -5 -30 -39 -26 -26 3 -37 0
-44 -14 -6 -10 -14 -16 -18 -13 -12 7 -22 -21 -14 -40 3 -9 -3 -25 -12 -36
-18 -19 -18 -20 0 -33 29 -21 13 -44 -29 -43 -21 1 -35 5 -32 11 2 6 9 10 16
8 8 -2 10 3 5 15 -16 35 -11 77 10 88 16 8 19 18 17 48 -2 20 -8 37 -13 37 -6
0 -8 -4 -5 -9 9 -14 -4 -41 -20 -41 -10 0 -14 13 -14 41 0 39 2 41 24 35 20
-5 24 -2 23 14 -1 21 -21 27 -32 10 -13 -22 -22 2 -21 58 1 52 4 62 31 85 22
20 25 25 10 20 -11 -3 -26 -10 -32 -16 -10 -7 -13 -2 -14 19 0 16 -2 49 -4 74
-2 25 1 51 8 59 9 12 9 13 0 7 -7 -4 -13 -3 -13 3 0 5 5 13 11 16 6 5 4 11 -7
19 -22 16 -10 36 21 36 13 0 27 5 30 10 4 6 -9 10 -31 10 -43 0 -41 10 2 14
16 1 39 -6 52 -15 13 -10 33 -16 47 -13 24 4 25 2 27 -53 1 -32 1 -68 0 -80 0
-13 3 -23 8 -23 5 0 10 45 12 100 l3 100 -97 0 c-63 0 -98 4 -98 11 0 16 238
4 298 -16 7 -3 10 0 7 5 -8 13 1 13 27 -1 15 -8 19 -8 13 1 -4 7 1 13 14 17
25 6 28 24 4 21 -10 -2 -101 -4 -201 -5z m-2 -53 c11 -7 5 -10 -22 -10 -21 0
-38 5 -38 10 0 13 40 13 60 0z m179 -419 c24 -15 4 -38 -36 -44 -46 -5 -59 4
-44 32 12 22 54 28 80 12z m16 -66 c0 -5 -17 -11 -37 -13 -30 -3 -38 0 -38 13
0 13 8 16 38 13 20 -2 37 -7 37 -13z"/>
<path d="M2222 2530 c0 -14 4 -38 8 -55 l8 -30 0 30 c0 17 -4 41 -8 55 l-8 25
0 -25z"/>
<path d="M2098 2533 c7 -3 16 -2 19 1 4 3 -2 6 -13 5 -11 0 -14 -3 -6 -6z"/>
<path d="M664 2512 c-6 -4 -15 -18 -19 -32 -4 -14 -23 -55 -41 -93 -30 -61
-31 -68 -15 -76 9 -5 25 -9 35 -8 11 1 21 -4 24 -12 4 -11 -2 -13 -25 -8 -29
6 -31 3 -68 -71 -21 -42 -46 -85 -54 -95 -15 -18 -16 -18 -22 0 -5 14 -9 8
-18 -24 -6 -23 -21 -49 -34 -58 -24 -17 -16 -20 14 -5 16 9 19 7 19 -14 0 -13
7 -32 16 -41 11 -10 13 -20 7 -26 -5 -5 -7 -23 -5 -41 l5 -31 13 33 c8 18 14
43 14 55 0 21 19 36 43 34 14 -1 67 53 67 68 0 10 -5 11 -19 4 -23 -13 -31 -5
-31 31 0 24 -2 27 -14 16 -8 -7 -10 -14 -5 -16 5 -2 9 -22 9 -44 0 -35 -2 -39
-15 -28 -8 7 -15 19 -15 26 0 8 -5 14 -10 14 -6 0 -8 -11 -4 -25 6 -24 -9 -55
-26 -55 -5 0 -8 20 -8 45 1 50 23 80 39 54 6 -10 9 -6 9 16 0 33 13 58 26 53
5 -1 10 6 12 17 2 11 9 26 15 34 7 7 12 21 12 30 0 9 10 17 22 19 22 3 23 1
17 -60 -7 -81 -10 -89 -29 -82 -8 3 -15 2 -15 -4 0 -8 31 -21 52 -22 6 0 14
90 22 245 2 44 9 93 15 108 13 32 15 77 4 77 -5 0 -13 -4 -19 -8z m-14 -147
c0 -8 -7 -15 -15 -15 -8 0 -15 7 -15 15 0 8 7 15 15 15 8 0 15 -7 15 -15z"/>
<path d="M1619 2506 c8 -9 12 -32 9 -56 -3 -36 -2 -39 9 -24 10 14 30 19 78
21 61 2 65 1 71 -22 11 -44 2 -50 -70 -48 -36 1 -70 4 -74 7 -4 3 -7 -55 -6
-127 2 -73 3 -178 3 -233 1 -92 3 -102 20 -107 17 -4 19 0 18 36 -2 36 2 43
26 55 26 12 30 12 42 -5 13 -17 13 -17 12 2 -1 13 4 20 16 19 14 -2 17 7 17
57 0 58 -6 69 -27 48 -5 -5 -32 -9 -59 -7 -41 2 -50 7 -52 24 -5 35 63 48 133
24 0 0 -1 30 -3 68 l-3 67 -62 0 c-57 0 -62 2 -59 20 5 28 17 33 66 28 31 -3
48 0 59 12 18 17 22 61 9 82 -10 15 -83 32 -115 26 -21 -4 -26 -1 -29 18 -2
14 -11 25 -23 28 -17 3 -18 1 -6 -13z m86 -236 c9 15 41 12 54 -4 10 -11 8
-16 -9 -21 -59 -19 -95 -10 -84 19 5 12 10 14 19 6 9 -8 15 -8 20 0z m60 -198
c1 -18 -8 -28 -30 -32 -3 -1 -18 -5 -34 -10 -28 -8 -29 -6 -33 25 -4 33 -2 34
32 37 55 5 63 3 65 -20z"/>
<path d="M2011 2506 c-7 -8 -11 -32 -9 -52 3 -34 6 -38 31 -37 41 2 45 4 17
12 -22 7 -25 12 -23 49 2 46 1 48 -16 28z"/>
<path d="M1110 2471 c0 -10 19 -25 25 -20 1 2 -3 10 -11 17 -8 7 -14 8 -14 3z"/>
<path d="M2352 2455 c1 -10 9 -20 16 -21 7 -1 8 0 2 3 -5 2 -8 9 -5 13 3 5 0
12 -6 15 -7 5 -10 1 -7 -10z"/>
<path d="M2186 2441 c-3 -4 -2 -28 3 -52 l9 -44 1 53 c1 51 -2 61 -13 43z"/>
<path d="M508 2348 c-2 -54 1 -96 7 -100 6 -5 4 -19 -7 -40 -19 -39 -29 -68
-23 -68 3 0 14 18 25 40 17 33 25 66 29 113 1 5 7 5 14 2 6 -4 3 0 -7 9 -15
12 -17 18 -7 30 9 11 10 24 2 52 -6 20 -8 41 -5 46 3 4 -2 8 -10 8 -12 0 -15
-19 -18 -92z"/>
<path d="M1940 2419 c-11 -8 -12 -12 -2 -16 19 -8 14 -31 -8 -35 -25 -4 -27
-23 -2 -23 10 0 15 -6 13 -15 -15 -59 -15 -63 7 -51 19 10 21 17 15 79 -3 37
-6 68 -7 69 -1 1 -8 -3 -16 -8z"/>
<path d="M1660 2410 c0 -5 5 -10 10 -10 6 0 10 5 10 10 0 6 -4 10 -10 10 -5 0
-10 -4 -10 -10z"/>
<path d="M2097 2414 c-8 -8 1 -24 14 -24 5 0 9 7 9 15 0 15 -12 20 -23 9z"/>
<path d="M2320 2405 c-8 -9 -8 -15 -2 -15 12 0 26 19 19 26 -2 2 -10 -2 -17
-11z"/>
<path d="M1070 2403 c0 -11 12 -26 34 -43 16 -12 15 -9 -4 18 -24 33 -30 38
-30 25z"/>
<path d="M2413 2340 c0 -41 2 -58 4 -37 2 20 2 54 0 75 -2 20 -4 3 -4 -38z"/>
<path d="M2020 2388 c0 -4 9 -8 20 -8 15 0 20 -7 20 -25 0 -25 32 -51 50 -40
17 11 11 22 -12 21 -19 -1 -23 4 -20 27 1 15 -1 27 -5 28 -4 0 -18 2 -30 3
-13 2 -23 -1 -23 -6z"/>
<path d="M2280 2378 c0 -7 5 -20 10 -28 8 -12 10 -11 10 7 0 12 -4 25 -10 28
-5 3 -10 0 -10 -7z"/>
<path d="M2431 2323 c0 -39 -6 -75 -11 -78 -17 -11 -1 -24 21 -18 19 5 20 4 8
-15 -12 -19 -10 -24 11 -47 13 -14 28 -25 33 -25 6 0 1 10 -11 23 -25 27 -28
47 -8 47 9 0 12 7 9 19 -3 13 -11 17 -25 13 -19 -5 -20 -1 -16 44 3 27 1 63
-3 79 -5 22 -7 10 -8 -42z"/>
<path d="M2362 2319 c-1 -28 3 -60 8 -72 6 -16 9 -2 9 51 1 39 -3 72 -8 72 -5
0 -9 -23 -9 -51z"/>
<path d="M2026 2283 c7 -108 5 -104 54 -90 41 12 54 27 29 36 -7 2 -9 -1 -5
-8 6 -9 0 -10 -21 -5 -38 9 -36 6 -41 74 -2 33 -8 63 -13 65 -4 3 -6 -29 -3
-72z"/>
<path d="M472 2330 c0 -14 2 -19 5 -12 2 6 2 18 0 25 -3 6 -5 1 -5 -13z"/>
<path d="M2512 2311 l-24 -18 29 2 c32 1 53 11 53 26 0 15 -33 10 -58 -10z"/>
<path d="M2200 2280 c-9 -17 -6 -22 27 -38 21 -10 37 -24 36 -30 -2 -7 2 -12
7 -12 6 0 10 -5 10 -10 0 -6 9 -20 20 -32 11 -12 20 -28 20 -35 0 -16 61 -102
73 -103 7 0 4 60 -7 132 -4 25 -34 77 -61 103 -46 47 -107 59 -125 25z m143
-94 c8 -17 17 -47 21 -66 6 -30 4 -33 -7 -20 -30 33 -97 151 -91 161 8 14 59
-35 77 -75z"/>
<path d="M2559 2288 c-1 -7 -1 -16 0 -20 0 -5 -6 -8 -14 -8 -12 0 -15 -16 -15
-84 0 -106 -8 -146 -26 -139 -8 3 -14 0 -14 -6 0 -7 7 -14 15 -17 8 -4 15 -18
15 -33 0 -30 31 -51 73 -51 21 1 22 1 3 15 -11 8 -28 15 -38 15 -13 0 -18 8
-18 29 0 17 5 33 11 36 5 4 8 12 6 18 -2 7 0 26 5 42 5 17 11 53 13 80 2 28 4
55 5 60 6 27 -1 75 -10 75 -5 0 -11 -6 -11 -12z m6 -48 c3 -5 1 -10 -4 -10 -6
0 -11 5 -11 10 0 6 2 10 4 10 3 0 8 -4 11 -10z"/>
<path d="M1927 2254 c-12 -12 -8 -24 8 -24 8 0 15 -4 15 -10 0 -5 -6 -7 -14
-4 -11 4 -15 -10 -18 -70 -2 -54 0 -76 9 -76 17 0 29 23 15 28 -7 2 -12 17
-12 33 0 23 3 27 17 22 11 -4 12 -8 5 -11 -7 -2 -12 -8 -12 -13 0 -4 7 -6 15
-3 17 7 20 40 5 49 -5 3 -10 11 -10 16 0 6 5 7 10 4 6 -4 10 9 10 31 0 30 -2
34 -14 25 -10 -9 -15 -9 -18 -1 -2 6 -7 8 -11 4z"/>
<path d="M1298 2234 c-5 -4 -8 -16 -8 -28 0 -14 3 -17 11 -9 6 6 9 19 7 28 -1
9 -6 13 -10 9z"/>
<path d="M1410 2233 c0 -5 -10 -15 -22 -21 -13 -6 -18 -11 -12 -11 16 -1 50
27 41 35 -4 4 -7 3 -7 -3z"/>
<path d="M1490 2209 c0 -5 5 -7 10 -4 6 3 10 8 10 11 0 2 -4 4 -10 4 -5 0 -10
-5 -10 -11z"/>
<path d="M2228 2203 c7 -3 16 -2 19 1 4 3 -2 6 -13 5 -11 0 -14 -3 -6 -6z"/>
<path d="M1444 2184 c-18 -14 -18 -14 6 -3 31 14 36 19 24 19 -6 0 -19 -7 -30
-16z"/>
<path d="M697 2160 c3 -19 9 -42 14 -50 15 -26 10 22 -6 55 l-14 30 6 -35z"/>
<path d="M1490 2165 c0 -8 5 -15 10 -15 6 0 10 7 10 15 0 8 -4 15 -10 15 -5 0
-10 -7 -10 -15z"/>
<path d="M1265 2150 c-10 -11 -15 -23 -12 -27 4 -3 7 -1 7 6 0 7 4 10 8 7 4
-2 13 4 20 15 16 25 0 25 -23 -1z"/>
<path d="M2422 2150 c0 -14 2 -19 5 -12 2 6 2 18 0 25 -3 6 -5 1 -5 -13z"/>
<path d="M2600 2150 c-11 -7 -12 -12 -4 -17 6 -5 15 -52 19 -106 4 -54 10 -95
13 -92 11 11 8 225 -3 225 -5 0 -17 -5 -25 -10z"/>
<path d="M2023 2132 c-24 -9 -43 -22 -43 -29 0 -7 -4 -13 -9 -13 -4 0 -5 -17
-1 -38 3 -21 6 -59 5 -85 -2 -32 1 -47 9 -44 7 3 10 31 8 83 l-4 79 36 18 c20
9 38 17 40 17 3 0 7 -38 11 -85 7 -86 10 -91 34 -76 9 6 10 11 2 15 -6 4 -11
17 -11 28 0 36 -22 148 -29 147 -3 -1 -25 -9 -48 -17z"/>
<path d="M2228 2118 c4 -4 22 -11 40 -14 27 -6 31 -4 26 10 -4 11 -16 15 -40
13 -18 -1 -30 -5 -26 -9z"/>
<path d="M2485 2110 c3 -5 8 -10 11 -10 2 0 4 5 4 10 0 6 -5 10 -11 10 -5 0
-7 -4 -4 -10z"/>
<path d="M2660 2104 c0 -8 5 -12 10 -9 6 4 8 11 5 16 -9 14 -15 11 -15 -7z"/>
<path d="M2444 2079 c3 -17 6 -47 6 -65 0 -19 5 -34 10 -34 6 0 8 21 6 53 -3
28 -5 58 -6 65 0 6 -5 12 -11 12 -8 0 -9 -11 -5 -31z"/>
<path d="M713 2073 c24 -87 29 -159 21 -293 l-9 -144 -39 -8 c-21 -5 -40 -7
-42 -5 -2 1 -4 56 -5 120 0 64 -5 117 -10 117 -5 0 -9 5 -9 11 0 5 4 8 9 5 8
-5 21 99 20 159 -1 58 -18 -6 -18 -72 l-1 -63 -39 -6 c-42 -7 -58 -30 -35 -52
19 -18 24 -15 24 14 0 16 5 24 13 22 8 -3 13 -34 14 -102 2 -105 -2 -126 -23
-126 -8 0 -14 -4 -14 -10 0 -5 -4 -10 -10 -10 -5 0 -10 9 -10 20 0 40 -16 19
-19 -24 -2 -39 1 -44 23 -50 13 -3 32 -3 42 1 11 4 22 0 30 -12 11 -14 14 -15
18 -4 16 52 14 51 56 44 30 -5 40 -3 41 7 0 7 6 73 13 147 7 73 9 150 5 170
-4 20 -13 64 -20 99 -7 34 -17 62 -21 62 -5 0 -7 -8 -5 -17z m-97 -448 c-2 -7
1 -18 7 -24 8 -8 8 -11 -1 -11 -7 0 -12 5 -12 11 0 6 -7 8 -15 5 -8 -3 -23 -9
-32 -12 -17 -5 -17 -5 0 9 9 8 17 19 17 25 0 12 21 21 33 15 5 -3 6 -11 3 -18z"/>
<path d="M1302 2065 c0 -16 2 -22 5 -12 2 9 2 23 0 30 -3 6 -5 -1 -5 -18z"/>
<path d="M2110 2070 c0 -5 5 -10 10 -10 6 0 10 5 10 10 0 6 -4 10 -10 10 -5 0
-10 -4 -10 -10z"/>
<path d="M326 2055 c4 -8 15 -20 25 -25 14 -8 17 -17 12 -40 -6 -32 -2 -35 25
-21 9 5 25 12 35 15 26 8 9 29 -19 23 -14 -2 -24 1 -25 7 0 6 -13 21 -30 34
-21 17 -27 19 -23 7z"/>
<path d="M2190 2026 c-30 -26 -60 -73 -60 -93 0 -3 10 -3 21 0 17 4 19 3 10
-6 -20 -20 -11 -28 26 -22 39 6 62 18 28 15 -33 -4 -37 -1 -23 14 17 17 57 31
80 27 9 -1 19 3 23 9 3 5 19 10 36 10 36 0 39 27 7 57 -37 33 -105 29 -148
-11z m124 -2 c9 -3 16 -11 16 -17 0 -6 -3 -7 -7 -4 -3 4 -11 3 -17 -2 -26 -20
-79 -31 -93 -20 -11 9 -12 8 -7 -5 4 -10 0 -18 -10 -22 -28 -11 -31 5 -5 32
36 39 83 53 123 38z"/>
<path d="M2422 2035 c0 -16 2 -22 5 -12 2 9 2 23 0 30 -3 6 -5 -1 -5 -18z"/>
<path d="M2575 2040 c3 -5 8 -10 11 -10 2 0 4 5 4 10 0 6 -5 10 -11 10 -5 0
-7 -4 -4 -10z"/>
<path d="M2658 2024 c4 -22 6 -24 14 -10 9 16 3 36 -11 36 -5 0 -6 -12 -3 -26z"/>
<path d="M2752 2026 c-1 -11 -9 -28 -18 -38 -16 -16 -15 -18 0 -24 24 -9 28
-1 23 42 -2 22 -4 30 -5 20z"/>
<path d="M2030 1986 c0 -8 -3 -21 -6 -30 -4 -11 0 -16 12 -16 16 0 17 2 4 10
-10 6 -11 10 -2 10 14 0 16 26 2 35 -5 3 -10 0 -10 -9z"/>
<path d="M248 1983 c-19 -5 -23 -20 -10 -40 6 -9 13 -4 26 17 17 30 16 32 -16
23z"/>
<path d="M2394 1979 c-3 -5 2 -9 10 -9 9 0 18 0 21 0 3 0 6 3 8 7 3 10 -32 12
-39 2z"/>
<path d="M548 1972 c-12 -2 -18 -13 -18 -29 l0 -26 21 27 c23 30 23 34 -3 28z"/>
<path d="M1786 1956 c6 -23 4 -24 -36 -19 -41 6 -41 5 -38 -23 2 -20 -1 -28
-10 -26 -10 2 -11 -4 -6 -20 5 -13 8 -63 9 -112 0 -66 4 -91 13 -94 11 -3 12
0 3 16 -12 23 -4 55 13 49 6 -2 10 -18 10 -35 -2 -30 0 -32 33 -29 l36 2 -7
80 c-3 44 -6 115 -6 158 0 45 -4 77 -10 77 -6 0 -8 -10 -4 -24z m-13 -53 c4
-3 2 -12 -4 -20 -8 -9 -8 -13 -1 -13 7 0 11 -24 11 -64 -1 -53 -3 -64 -17 -62
-22 4 -33 58 -26 119 5 43 19 58 37 40z m12 -182 c3 -5 1 -12 -5 -16 -5 -3
-10 1 -10 9 0 18 6 21 15 7z"/>
<path d="M2350 1956 c0 -2 9 -6 20 -9 11 -3 20 -1 20 4 0 5 -9 9 -20 9 -11 0
-20 -2 -20 -4z"/>
<path d="M2322 1919 c-7 -10 -21 -19 -31 -19 -10 0 -21 -7 -25 -15 -7 -20 14
-19 59 2 38 18 42 25 22 41 -10 8 -16 6 -25 -9z"/>
<path d="M2431 1924 c0 -11 3 -14 6 -6 3 7 2 16 -1 19 -3 4 -6 -2 -5 -13z"/>
<path d="M2462 1931 c-9 -5 -12 -25 -10 -61 2 -42 7 -54 21 -56 16 -2 17 2 10
29 -4 18 -7 47 -6 65 1 17 1 32 0 32 -1 0 -8 -4 -15 -9z"/>
<path d="M341 1908 c-1 -16 -10 -33 -23 -42 -18 -13 -19 -16 -5 -16 9 0 17 5
17 10 0 6 7 10 15 10 23 0 18 -26 -10 -48 -14 -11 -21 -23 -16 -26 5 -3 9 -44
8 -91 -2 -94 8 -118 38 -85 21 23 35 26 35 6 0 -9 12 -13 37 -12 29 1 38 -3
41 -17 3 -15 0 -18 -17 -12 -15 5 -21 2 -21 -9 0 -11 9 -16 30 -16 25 0 30 4
30 23 0 13 -6 29 -12 35 -10 10 -10 17 0 32 14 23 16 80 3 80 -4 0 -6 -10 -4
-22 4 -23 -20 -68 -31 -58 -3 3 -2 38 3 78 8 80 -1 99 -40 89 -12 -3 -27 0
-34 7 -16 16 -14 78 3 84 8 2 10 -3 6 -15 -6 -16 -5 -16 9 2 12 16 18 17 28 8
10 -10 9 -15 -1 -27 -7 -9 -16 -13 -21 -10 -5 3 -9 -2 -9 -12 0 -11 6 -15 20
-11 11 3 20 0 20 -6 0 -7 4 -5 9 3 5 8 6 31 4 50 -4 33 -7 35 -41 35 -20 0
-42 -4 -49 -8 -6 -4 -14 -1 -16 5 -3 7 -6 1 -6 -14z m20 -121 c-8 -8 -11 -7
-11 4 0 20 13 34 18 19 3 -7 -1 -17 -7 -23z m80 2 c-2 -8 -3 -23 -3 -33 1 -22
-44 -73 -55 -62 -4 4 1 20 11 36 9 17 14 35 11 40 -8 14 14 42 29 37 6 -3 9
-11 7 -18z m-74 -61 c-3 -8 -6 -5 -6 6 -1 11 2 17 5 13 3 -3 4 -12 1 -19z m46
-48 c8 31 27 24 27 -11 0 -28 -2 -31 -22 -24 -13 4 -30 7 -39 8 -9 1 -16 12
-17 30 l-2 28 24 -25 c23 -25 24 -25 29 -6z"/>
<path d="M2088 1919 c-2 -7 -1 -35 3 -63 3 -28 6 -52 5 -53 -3 -3 -77 15 -83
20 -2 3 -7 24 -10 46 -4 27 -11 41 -20 41 -10 0 -13 -6 -9 -16 3 -9 6 -30 6
-49 0 -32 1 -33 63 -44 34 -7 71 -14 82 -17 15 -4 16 -3 6 4 -12 9 -15 24 -24
109 -2 26 -13 39 -19 22z"/>
<path d="M286 1904 c-9 -22 -8 -24 9 -18 8 4 15 12 15 20 0 19 -16 18 -24 -2z"/>
<path d="M1888 1875 c2 -25 9 -45 14 -45 6 0 8 13 4 31 -3 17 -6 38 -6 45 0 8
-3 14 -8 14 -4 0 -6 -20 -4 -45z"/>
<path d="M2736 1911 c-4 -5 3 -15 15 -21 18 -10 20 -9 17 6 -4 20 -23 30 -32
15z"/>
<path d="M1626 1894 c-10 -25 -7 -34 9 -34 9 0 15 9 15 25 0 28 -15 34 -24 9z"/>
<path d="M2040 1900 c-9 -6 -10 -10 -3 -10 6 0 15 5 18 10 8 12 4 12 -15 0z"/>
<path d="M2383 1860 c0 -25 2 -35 4 -22 2 12 2 32 0 45 -2 12 -4 2 -4 -23z"/>
<path d="M210 1886 c0 -2 9 -6 20 -9 11 -3 20 -1 20 4 0 5 -9 9 -20 9 -11 0
-20 -2 -20 -4z"/>
<path d="M480 1853 c0 -8 7 -13 18 -11 9 2 17 7 17 12 0 5 -8 10 -17 12 -10 1
-18 -4 -18 -13z"/>
<path d="M1470 1849 c0 -5 7 -9 15 -9 8 0 15 -4 15 -10 0 -5 -9 -10 -20 -10
-13 0 -20 -7 -20 -20 0 -26 8 -25 36 6 30 32 30 41 -1 46 -14 3 -25 1 -25 -3z"/>
<path d="M2041 1838 c10 -19 29 -16 29 5 0 7 -9 13 -19 13 -16 0 -18 -4 -10
-18z"/>
<path d="M2432 1840 c0 -14 2 -19 5 -12 2 6 2 18 0 25 -3 6 -5 1 -5 -13z"/>
<path d="M280 1830 c-9 -6 -10 -10 -3 -10 6 0 15 5 18 10 8 12 4 12 -15 0z"/>
<path d="M488 1780 c-5 -32 6 -41 16 -14 9 23 7 44 -3 44 -5 0 -11 -13 -13
-30z"/>
<path d="M1900 1801 c0 -12 26 -22 95 -35 49 -10 60 -16 60 -31 0 -11 8 -21
18 -23 9 -2 17 -8 17 -13 0 -5 7 -9 15 -9 9 0 12 6 9 15 -8 20 25 32 37 14 5
-8 9 -9 10 -4 0 6 7 -3 14 -20 11 -24 15 -27 20 -13 7 18 -22 58 -42 58 -7 0
-13 5 -13 10 0 6 -16 10 -35 10 -19 0 -43 4 -53 9 -18 11 -89 26 -109 24 -7 0
-13 3 -13 8 0 5 -7 9 -15 9 -8 0 -15 -4 -15 -9z"/>
<path d="M2760 1810 c-1 -3 -3 -47 -4 -97 -2 -62 1 -93 8 -93 6 -1 -4 -7 -23
-16 -41 -18 -37 -25 10 -18 l35 6 -7 51 c-12 82 -11 139 2 131 7 -4 9 -24 6
-50 -3 -33 -1 -44 9 -44 13 0 20 -46 15 -87 -1 -7 4 -13 11 -13 10 0 12 24 10
102 -2 57 -5 104 -6 105 -1 2 -13 4 -27 5 -13 2 -27 8 -31 13 -4 6 -8 8 -8 5z"/>
<path d="M780 1792 c0 -11 19 -107 27 -132 3 -12 5 -12 13 0 5 9 3 27 -6 48
-8 19 -16 46 -19 60 -4 26 -15 43 -15 24z"/>
<path d="M1868 1775 c2 -14 6 -25 8 -25 2 0 4 11 4 25 0 14 -4 25 -9 25 -4 0
-6 -11 -3 -25z"/>
<path d="M2613 1783 c9 -2 25 -2 35 0 9 3 1 5 -18 5 -19 0 -27 -2 -17 -5z"/>
<path d="M2685 1770 c-4 -6 -3 -16 3 -22 6 -6 12 -6 17 2 4 6 3 16 -3 22 -6 6
-12 6 -17 -2z"/>
<path d="M1366 1760 c-20 -7 -23 -5 59 -36 18 -6 18 -8 3 -11 -21 -5 -23 -17
-5 -32 16 -13 27 -5 27 21 0 10 4 18 9 18 5 0 9 11 9 25 0 18 -6 25 -19 25
-11 0 -19 -7 -19 -15 0 -19 -37 -20 -42 -1 -2 8 -10 11 -22 6z"/>
<path d="M1653 1756 c-21 -12 -22 -13 -4 -40 10 -15 21 -23 25 -18 3 6 1 12
-6 14 -10 4 -10 10 -1 31 7 15 12 27 10 26 -1 -1 -12 -6 -24 -13z"/>
<path d="M2297 1752 c-10 -4 23 -7 73 -7 49 0 90 3 90 8 0 9 -139 8 -163 -1z"/>
<path d="M2219 1748 c0 -2 -2 -12 -4 -23 -3 -17 -2 -18 8 -4 7 9 19 18 27 22
10 4 8 6 -7 6 -13 1 -23 0 -24 -1z"/>
<path d="M1090 1694 c-12 -26 -20 -60 -18 -78 2 -23 -1 -31 -13 -31 -8 0 -27
-8 -42 -18 -14 -9 -31 -17 -36 -17 -5 0 -11 -6 -14 -12 -8 -22 -39 16 -43 53
-2 18 -6 34 -8 36 -2 2 -21 -3 -41 -11 -47 -20 -56 -20 -49 -1 7 18 -2 19 -45
4 -17 -6 -36 -20 -42 -30 -12 -23 -1 -24 37 -4 21 11 31 11 42 3 12 -10 11
-14 -2 -24 -14 -10 -15 -12 -2 -17 9 -4 18 -2 21 3 4 6 15 10 27 10 11 0 22 8
25 20 3 11 9 20 14 20 5 0 10 -9 10 -20 1 -11 2 -26 3 -32 0 -7 13 -18 27 -25
26 -13 27 -14 14 -55 -6 -23 -18 -44 -25 -46 -14 -5 -5 33 13 56 5 7 7 16 3
20 -4 4 -16 -3 -26 -15 -15 -20 -20 -21 -30 -8 -10 12 -10 18 1 31 10 13 10
17 -2 25 -18 11 -31 7 -38 -12 -4 -12 -2 -12 12 0 18 14 24 2 7 -15 -15 -15 0
-54 21 -54 27 0 24 -26 -3 -34 -22 -7 -22 -7 -3 -15 23 -10 40 -5 78 23 17 12
23 22 16 27 -16 9 -1 49 18 49 9 0 13 -6 10 -14 -6 -15 11 -36 27 -36 6 0 5 4
-3 9 -7 5 -10 14 -6 20 5 9 10 9 21 0 23 -19 16 -34 -21 -49 -19 -8 -35 -17
-35 -21 0 -4 -9 -9 -19 -12 -20 -5 -22 -21 -8 -44 13 -21 27 -15 27 10 0 13 9
32 20 42 17 15 24 16 49 5 18 -7 28 -17 25 -25 -3 -7 -1 -16 4 -19 5 -3 13 13
17 37 9 47 9 46 0 68 -3 9 0 23 7 30 8 8 23 30 36 49 12 19 22 32 22 28 0 -4
11 4 25 18 14 14 30 22 35 19 6 -3 10 -1 10 4 0 6 -13 11 -30 11 -21 0 -30 5
-30 16 0 12 7 15 25 12 14 -3 30 0 35 7 6 7 21 10 33 7 20 -5 20 -4 8 11 -15
18 -61 23 -61 7 0 -5 -6 -10 -13 -10 -8 0 -24 -11 -37 -25 -13 -14 -18 -25
-12 -25 7 0 12 -7 12 -16 0 -10 -7 -14 -17 -12 -10 2 -17 10 -15 17 1 7 -7 15
-18 18 -25 7 -25 19 -1 66 14 27 15 37 6 37 -7 0 -23 -21 -35 -46z m28 -89
c-6 -14 -15 -25 -20 -25 -11 0 -10 7 4 30 18 29 30 25 16 -5z m32 -25 c0 -5
-7 -10 -15 -10 -8 0 -15 5 -15 10 0 6 7 10 15 10 8 0 15 -4 15 -10z m-42 -20
c1 0 -3 -10 -9 -22 -7 -13 -12 -24 -11 -25 6 -9 1 -45 -5 -39 -4 4 -6 23 -4
42 2 29 0 34 -19 34 -19 0 -20 -2 -10 -15 7 -8 9 -15 4 -15 -5 0 -2 -4 6 -10
27 -17 1 -23 -37 -8 -45 19 -53 35 -19 44 13 3 27 12 30 19 4 11 13 12 38 4
18 -5 34 -9 36 -9z m-8 -126 c0 -16 -16 -19 -25 -4 -8 13 4 32 16 25 5 -4 9
-13 9 -21z"/>
<path d="M2607 1724 c6 -15 23 -19 23 -5 0 5 -7 11 -14 14 -10 4 -13 1 -9 -9z"/>
<path d="M1305 1696 c6 -28 3 -36 -16 -50 -12 -8 -24 -26 -26 -38 -3 -20 0
-19 19 9 27 38 38 41 38 12 0 -11 -4 -17 -10 -14 -5 3 -10 -3 -10 -14 0 -12
-6 -21 -12 -21 -9 0 -8 -4 2 -10 22 -14 28 -12 26 8 -1 11 5 16 16 14 15 -2
17 2 12 27 -5 24 -2 32 11 38 17 6 16 7 -3 14 -22 8 -31 39 -11 39 5 0 7 5 4
10 -3 6 -15 10 -26 10 -17 0 -19 -5 -14 -34z m35 -36 c0 -5 -4 -10 -10 -10 -5
0 -10 5 -10 10 0 6 5 10 10 10 6 0 10 -4 10 -10z"/>
<path d="M2450 1720 c0 -5 5 -10 11 -10 5 0 7 5 4 10 -3 6 -8 10 -11 10 -2 0
-4 -4 -4 -10z"/>
<path d="M2666 1705 c-3 -8 -1 -15 4 -15 5 0 11 -8 13 -17 3 -12 5 -8 6 9 1
30 -14 46 -23 23z"/>
<path d="M520 1700 c0 -5 4 -10 9 -10 6 0 13 5 16 10 3 6 -1 10 -9 10 -9 0
-16 -4 -16 -10z"/>
<path d="M1370 1700 c0 -5 5 -10 10 -10 6 0 10 5 10 10 0 6 -4 10 -10 10 -5 0
-10 -4 -10 -10z"/>
<path d="M1613 1693 c-22 -8 -14 -21 12 -19 14 0 24 5 22 10 -4 12 -18 16 -34
9z"/>
<path d="M2477 1689 c7 -7 15 -10 18 -7 3 3 -2 9 -12 12 -14 6 -15 5 -6 -5z"/>
<path d="M887 1672 c-14 -6 -11 -11 18 -26 19 -11 35 -23 35 -28 0 -4 7 -8 15
-8 17 0 21 -16 5 -22 -5 -2 -6 -9 -1 -16 7 -12 12 -12 30 -1 11 8 21 20 21 28
0 9 7 11 21 8 19 -5 21 -3 15 25 -3 18 -8 33 -10 35 -2 2 -21 -3 -42 -12 -27
-11 -39 -12 -45 -4 -4 6 -12 8 -18 5 -6 -4 -11 0 -11 8 0 17 -5 18 -33 8z
m118 -52 c-10 -11 -20 -18 -23 -15 -7 6 18 35 31 35 5 0 2 -9 -8 -20z"/>
<path d="M2144 1665 c-10 -8 -31 -15 -46 -15 -31 0 -37 -14 -11 -24 9 -4 20
-1 25 6 6 10 13 7 28 -12 11 -14 20 -28 20 -32 0 -4 10 -8 23 -10 12 -2 23 -9
23 -15 1 -7 2 -16 3 -19 3 -13 64 33 73 56 8 20 5 28 -12 42 -29 23 -80 24
-80 2 0 -13 7 -15 35 -10 34 7 35 6 35 -24 0 -25 -4 -30 -22 -29 -50 2 -73 14
-70 37 2 16 -2 22 -15 22 -17 1 -17 2 1 15 11 8 17 17 15 20 -3 3 -14 -2 -25
-10z"/>
<path d="M2701 1653 c-1 -38 -27 -73 -54 -73 -11 0 -15 4 -11 12 4 7 3 8 -5 4
-6 -4 -23 -1 -36 8 -27 17 -59 16 -77 -2 -9 -9 -4 -19 22 -42 19 -16 40 -29
46 -30 5 0 23 -13 38 -29 l27 -28 -28 -6 c-15 -3 -46 -2 -68 2 -32 6 -44 4
-59 -11 -11 -10 -26 -18 -35 -18 -11 0 -11 3 4 14 19 14 29 56 12 56 -5 0 -21
-6 -35 -14 -15 -8 -36 -17 -46 -20 -10 -4 -16 -9 -13 -12 3 -4 24 1 47 10 53
21 52 2 -2 -25 -24 -12 -37 -24 -30 -27 7 -2 20 2 29 10 15 12 15 11 2 -9 -16
-26 -47 -30 -55 -8 -4 8 -17 15 -31 15 -14 0 -22 4 -18 10 4 6 15 8 26 5 21
-7 25 5 7 23 -11 11 0 20 34 26 25 4 74 35 56 36 -9 0 -20 -5 -23 -10 -3 -6
-17 -7 -29 -4 -25 6 -66 -27 -66 -53 0 -16 -16 -17 -26 -2 -3 6 0 15 7 20 10
6 11 9 2 9 -23 0 -28 -4 -25 -19 4 -17 29 -43 55 -56 11 -5 22 -16 25 -22 8
-26 -19 -12 -62 32 -25 25 -52 45 -59 45 -16 0 -47 -32 -47 -48 0 -7 -4 -12
-9 -12 -13 0 -23 17 -14 23 5 2 2 2 -5 0 -8 -2 -18 0 -24 3 -12 8 22 33 47 34
11 1 14 4 7 7 -17 7 -5 23 19 23 10 0 19 5 19 10 0 6 5 10 11 10 6 0 9 -7 5
-15 -4 -13 -2 -13 14 -5 10 5 30 10 45 10 14 0 35 9 47 20 22 20 15 27 -11 11
-9 -6 -22 -6 -33 0 -14 8 -18 6 -18 -7 0 -12 -6 -15 -24 -10 -31 8 -116 -19
-136 -43 -9 -10 -21 -16 -28 -13 -23 7 -12 -15 20 -42 33 -27 28 -32 -24 -27
-25 3 -22 -16 3 -22 12 -3 28 0 36 9 8 8 23 14 32 14 10 0 25 7 32 16 12 15
14 14 19 -7 4 -16 15 -25 38 -30 18 -4 35 -3 37 1 3 5 14 6 26 3 16 -4 17 -8
7 -14 -22 -15 2 -10 38 7 48 23 64 12 20 -14 -20 -12 -34 -27 -31 -32 3 -6 -1
-10 -9 -10 -9 0 -16 4 -16 10 0 5 -8 6 -17 3 -15 -6 -14 -8 5 -16 12 -6 22
-14 22 -19 0 -11 -44 1 -48 13 -5 13 -54 10 -73 -4 -26 -20 -12 -39 16 -21 15
9 25 11 29 5 4 -6 13 -8 21 -4 8 3 15 1 15 -4 0 -18 -32 -53 -48 -53 -15 0
-15 2 -2 10 12 7 12 12 3 21 -9 9 -16 9 -28 -1 -14 -11 -20 -11 -37 -1 -67 42
-89 50 -120 45 -32 -5 -32 -5 -13 11 20 17 19 17 -8 12 -18 -3 -26 0 -24 7 2
6 17 11 33 11 16 0 29 5 29 10 0 6 -12 9 -27 9 -32 -2 -38 15 -8 23 11 3 20 9
20 14 0 11 -7 11 -47 0 -26 -8 -35 -6 -49 10 -16 18 -16 19 6 27 20 8 21 10 6
15 -10 4 -14 11 -11 17 8 13 85 13 85 0 0 -5 5 -10 10 -10 6 0 10 9 10 19 0
14 12 23 42 33 42 13 69 41 54 55 -4 4 -13 0 -20 -9 -15 -20 -66 -35 -66 -19
0 6 -7 11 -15 11 -8 0 -15 -5 -15 -12 0 -9 -3 -9 -12 0 -15 15 -32 16 -23 2 6
-9 -10 -14 -42 -13 -7 1 -13 -3 -13 -8 0 -5 -7 -9 -15 -9 -8 0 -15 -4 -15 -10
0 -5 5 -10 10 -10 6 0 10 -9 10 -20 0 -15 -7 -20 -25 -20 -14 0 -25 -5 -25
-11 0 -6 7 -9 15 -5 23 9 18 -12 -7 -25 -18 -10 -20 -9 -15 5 3 8 2 18 -2 21
-5 3 -7 14 -4 24 4 16 0 20 -21 18 -15 -1 -30 -7 -34 -13 -5 -8 -13 -4 -25 12
-10 13 -13 24 -8 24 5 0 13 -4 16 -10 3 -5 11 -10 16 -10 6 0 8 4 5 8 -2 4 12
7 32 5 l37 -3 -33 15 c-28 13 -32 18 -22 30 10 12 10 15 1 15 -16 0 -42 -26
-35 -33 12 -12 -64 -18 -97 -9 -19 6 -26 11 -15 11 11 1 16 6 13 15 -3 8 -1
17 6 20 7 3 1 3 -13 0 -14 -3 -30 -12 -36 -20 -10 -13 -14 -12 -29 2 -12 12
-13 20 -5 28 8 8 13 8 18 -1 5 -8 13 -9 22 -3 13 8 12 10 -2 10 -10 0 -18 4
-18 9 0 14 -32 23 -43 12 -7 -7 -16 -7 -29 0 -24 13 -25 -6 0 -20 15 -9 14
-11 -8 -12 -78 -6 -93 -9 -104 -25 -9 -12 -19 -15 -32 -10 -18 7 -17 9 6 28
22 18 22 20 5 17 -22 -5 -56 -66 -48 -86 3 -7 -2 -13 -11 -13 -9 0 -21 -9 -28
-20 -15 -24 -28 -26 -28 -5 0 8 -4 15 -10 15 -5 0 -10 7 -10 15 0 11 11 15 38
15 l37 1 -44 20 c-32 15 -40 24 -32 32 8 8 14 8 23 -1 14 -14 58 -16 58 -3 0
5 -7 11 -15 15 -20 7 -8 36 16 36 15 0 18 5 12 33 -7 40 -8 41 -29 33 -13 -5
-15 -9 -6 -18 16 -16 15 -28 -3 -28 -8 0 -15 -6 -15 -13 0 -7 -13 -18 -30 -24
-37 -14 -50 -42 -26 -55 9 -5 14 -14 10 -19 -11 -19 7 -68 29 -75 12 -4 27
-14 34 -23 7 -9 13 -11 13 -5 0 5 -5 15 -12 22 -8 8 -8 15 -3 21 14 13 33 18
34 8 0 -4 7 -15 16 -23 22 -23 18 -40 -5 -19 -17 16 -20 16 -20 2 0 -8 -6 -22
-13 -29 -7 -7 -16 -21 -20 -30 -3 -10 -16 -18 -27 -18 -19 0 -24 10 -21 37 1
8 -5 10 -14 7 -8 -3 -13 -10 -10 -14 3 -4 -7 -13 -23 -18 -56 -20 -62 -32 -50
-86 9 -43 12 -48 23 -33 7 9 17 17 24 17 19 0 12 -15 -16 -32 -25 -15 -28 -15
-57 6 -17 11 -36 28 -43 36 -11 13 -12 13 -13 -3 0 -9 11 -23 25 -29 14 -6 25
-17 25 -25 0 -7 9 -13 21 -13 15 0 20 -5 17 -22 -2 -15 -9 -22 -21 -22 -9 1
-17 -4 -17 -12 0 -19 46 -18 54 1 3 8 10 15 17 15 6 0 8 -7 5 -15 -18 -45 -18
-50 2 -27 11 12 31 23 44 23 17 1 18 3 6 6 -20 5 -23 19 -7 29 6 3 15 0 20 -7
7 -11 10 -9 15 9 5 19 9 20 21 10 13 -10 19 -8 33 10 22 26 32 29 23 5 -6 -17
-6 -17 10 -1 20 19 22 49 5 66 -15 15 -48 16 -48 1 0 -6 -8 -8 -19 -4 -16 5
-18 2 -14 -15 6 -23 -15 -28 -23 -5 -5 12 -9 13 -20 4 -12 -9 -13 -9 -9 3 4
10 -1 17 -13 20 -17 5 -19 11 -13 39 8 38 30 50 38 20 8 -30 18 -26 50 17 40
53 47 59 60 55 6 -2 16 5 22 16 8 14 8 20 -1 23 -19 7 -20 48 -2 48 12 0 15
-6 11 -21 -5 -19 -4 -20 12 -5 10 9 25 16 34 16 9 0 17 5 17 11 0 7 -12 8 -32
4 -31 -6 -32 -5 -13 10 11 8 26 12 35 9 8 -4 29 -8 45 -10 l30 -3 -32 11 c-18
6 -33 15 -33 20 0 4 -12 5 -27 2 -25 -6 -26 -5 -13 9 14 15 64 22 123 19 20
-2 27 -7 27 -22 0 -13 -7 -20 -20 -20 -11 0 -20 -7 -20 -15 0 -9 -10 -15 -27
-16 l-28 -1 25 -7 25 -7 -23 -13 c-39 -21 -73 -54 -68 -67 3 -7 -2 -15 -11
-18 -12 -5 -14 -15 -9 -47 6 -36 5 -39 -11 -30 -46 26 -48 29 -33 46 10 12 10
18 2 26 -7 5 -10 6 -7 3 3 -4 -2 -12 -11 -18 -22 -16 -7 -49 35 -78 19 -13 39
-32 45 -43 6 -11 15 -23 20 -26 5 -4 6 -11 2 -17 -3 -5 1 -13 10 -16 9 -3 12
-11 8 -18 -5 -7 -7 -27 -5 -45 l3 -33 -50 0 c-76 0 -172 -12 -167 -21 3 -4 1
-10 -5 -14 -5 -3 -10 -1 -10 5 0 30 29 54 113 96 59 29 80 44 60 40 -18 -3
-51 -17 -74 -31 -22 -15 -44 -24 -47 -20 -4 3 0 10 8 15 8 5 12 11 9 14 -3 3
-27 -14 -52 -39 -31 -29 -56 -45 -73 -45 -21 0 -24 4 -19 20 5 15 3 18 -8 14
-10 -3 -15 -18 -14 -39 1 -26 4 -32 14 -24 6 6 17 8 23 4 6 -4 18 -1 26 6 14
11 15 9 12 -17 -1 -16 -9 -30 -15 -30 -7 -1 -18 -2 -25 -3 -19 -2 2 -15 25
-16 20 0 22 -5 22 -55 0 -30 3 -60 7 -65 3 -6 5 -73 5 -150 l-2 -140 -70 -6
c-39 -3 -103 -5 -143 -3 -46 2 -71 0 -67 -6 4 -6 71 -10 162 -10 123 0 153 3
145 13 -6 7 -10 70 -10 148 l0 137 69 -37 68 -36 3 -135 c2 -97 6 -135 15
-135 15 0 93 -73 93 -86 0 -16 -29 -22 -45 -9 -19 16 -20 3 -1 -16 18 -18 24
-18 43 1 12 13 14 28 8 73 -4 31 -9 104 -11 162 l-3 105 52 53 c29 29 44 50
35 46 -15 -5 -18 0 -18 26 0 32 0 32 25 16 28 -18 35 -20 35 -7 0 5 -17 15
-37 22 -57 18 -81 40 -72 64 4 11 8 39 8 63 1 24 6 42 12 42 8 0 10 -19 6 -64
l-6 -64 32 -13 c18 -7 40 -19 49 -27 9 -8 22 -11 27 -7 15 8 14 25 -1 25 -6 0
-28 7 -48 16 -37 16 -37 18 -32 63 6 56 7 58 30 38 10 -10 24 -17 31 -17 6 0
31 -18 55 -40 34 -32 42 -45 38 -65 -2 -14 -8 -22 -13 -19 -5 3 -9 -5 -9 -18
0 -18 2 -20 10 -8 9 13 10 13 10 0 0 -8 6 -27 14 -42 10 -20 11 -28 3 -31 -8
-3 -7 -10 5 -23 9 -10 16 -23 15 -28 -4 -17 89 -24 133 -11 17 5 22 5 15 -3
-5 -6 -26 -15 -45 -21 -31 -10 -32 -10 -5 -7 17 3 38 8 48 11 16 7 16 3 -3
-40 -11 -26 -18 -50 -16 -53 3 -2 1 -13 -5 -23 -7 -13 -6 -19 1 -19 12 0 32
48 25 60 -3 5 -1 10 5 12 5 1 11 19 12 39 2 23 13 46 32 65 l28 29 -7 -45
c-18 -119 -21 -150 -14 -150 15 0 23 25 26 90 5 99 10 112 35 104 13 -4 18 -2
14 4 -4 6 3 16 15 23 16 8 23 8 29 0 5 -9 11 -7 20 4 7 8 10 18 7 22 -10 9
-127 -35 -170 -65 -26 -18 -41 -22 -46 -14 -4 7 -12 8 -21 2 -42 -27 -105 -1
-113 46 -2 10 -9 39 -16 63 -16 55 -8 62 20 19 21 -32 68 -68 90 -68 8 0 49
36 49 43 0 1 -20 1 -45 -1 -42 -4 -62 10 -32 21 6 3 2 6 -11 6 -13 1 -30 7
-38 15 -20 20 -17 29 5 17 20 -11 32 -3 44 32 8 21 -8 23 -17 2 -6 -17 -56
-21 -56 -5 0 6 -6 10 -14 10 -7 0 -19 7 -26 15 -12 14 -8 15 27 9 35 -5 43 -2
75 28 50 47 91 130 79 160 l-10 23 0 -26 c-2 -60 -91 -149 -151 -149 -34 0
-132 29 -159 47 -14 10 -30 18 -34 18 -4 0 -17 16 -29 35 l-22 35 27 -24 c28
-25 57 -36 57 -21 0 4 -9 10 -19 13 -23 6 -70 78 -83 126 -5 20 -13 45 -18 56
-17 39 -23 68 -11 61 6 -4 11 -3 11 3 0 6 13 24 30 41 24 25 30 27 31 13 0
-16 1 -16 9 2 6 14 9 15 10 5 0 -8 7 0 16 19 17 40 50 71 75 71 9 0 38 -9 64
-20 25 -11 43 -15 40 -10 -3 6 -1 10 4 10 6 0 17 -16 25 -35 8 -19 22 -38 31
-42 12 -4 13 -8 5 -13 -9 -6 -6 -10 8 -14 13 -4 29 -28 43 -62 18 -42 25 -51
30 -37 4 11 -1 29 -12 45 -11 14 -19 33 -19 42 0 21 43 41 67 31 15 -7 13 -9
-11 -14 -16 -3 -31 -13 -33 -21 -4 -13 -3 -13 6 0 7 10 11 11 11 3 0 -7 8 -13
17 -13 12 0 14 -3 6 -11 -7 -7 -8 -23 -2 -47 6 -28 5 -40 -6 -48 -13 -10 -12
-18 9 -65 25 -56 74 -99 111 -98 22 1 79 -11 173 -38 54 -15 64 -16 72 -4 7
12 11 12 24 2 9 -8 16 -10 16 -5 -1 16 -47 62 -78 78 -30 15 -30 15 -36 -15
-3 -18 -10 -28 -16 -24 -12 8 -4 62 12 83 21 25 -6 11 -43 -23 -44 -40 -73
-44 -89 -15 -6 11 -17 19 -25 18 -8 -2 -20 6 -28 17 -14 19 -15 18 -10 -7 l5
-28 -31 16 c-39 20 -39 29 1 50 l31 16 -31 25 c-45 35 -41 48 18 51 46 2 67
-9 37 -21 -19 -7 -21 -67 -2 -67 11 0 13 8 8 33 l-6 32 21 -19 c28 -24 28 -41
1 -59 -14 -11 -17 -17 -9 -22 8 -5 24 5 41 23 21 22 34 29 51 25 13 -4 25 -10
28 -14 3 -4 22 -10 43 -14 30 -6 37 -4 37 9 0 10 -7 15 -21 13 -12 -1 -24 5
-27 13 -4 12 -2 13 9 3 11 -9 20 -8 39 7 14 11 22 20 18 20 -7 0 20 32 70 83
15 15 34 26 43 24 14 -4 15 1 9 29 -8 34 -8 35 33 38 6 1 18 9 25 19 15 19 86
24 98 6 4 -8 -3 -9 -24 -4 -31 6 -72 -8 -72 -24 0 -5 18 -7 40 -5 35 4 39 3
33 -13 -7 -19 -22 -33 -37 -33 -4 0 -5 8 -2 17 4 10 4 14 0 11 -4 -4 -15 -3
-25 3 -15 7 -19 6 -19 -6 0 -8 7 -15 15 -15 10 0 15 -10 15 -27 l0 -27 20 22
c11 11 36 24 55 28 19 3 39 12 46 20 15 18 39 18 39 -1 0 -10 6 -12 18 -8 15
6 15 5 3 -10 -7 -9 -24 -17 -37 -17 -13 0 -34 -5 -48 -11 -19 -9 -29 -9 -40 0
-8 7 -17 8 -20 3 -7 -11 16 -22 45 -22 12 0 17 -4 13 -11 -3 -6 8 -3 25 5 17
9 31 13 31 8 0 -5 20 -6 45 -2 25 4 47 5 50 2 11 -11 4 -23 -21 -32 -14 -6
-22 -14 -19 -20 3 -6 -5 -10 -19 -10 -31 0 -42 -16 -16 -23 11 -3 20 -13 20
-24 -1 -16 -2 -16 -13 -2 -7 9 -24 18 -38 21 -21 4 -28 -1 -38 -23 -16 -36 -7
-53 20 -38 14 7 18 16 14 32 -6 20 -5 21 8 5 8 -10 27 -18 42 -18 22 0 26 4
22 20 -5 20 35 85 46 74 9 -10 59 25 52 36 -4 6 -2 10 3 10 5 0 14 -11 20 -25
6 -14 20 -25 30 -25 23 0 32 54 32 193 0 83 -1 88 -25 99 -13 6 -22 15 -19 19
3 5 0 9 -5 9 -19 0 -12 -49 9 -70 21 -21 22 -32 18 -122 -2 -37 -6 -48 -23
-54 -11 -3 -22 -7 -25 -9 -3 -1 -12 -5 -21 -9 -8 -4 -28 -2 -43 4 -15 5 -37 8
-49 6 -12 -1 -16 -1 -9 1 17 6 15 16 -8 41 -20 21 -20 21 2 36 12 9 19 18 15
22 -3 3 -13 -1 -23 -10 -12 -13 -19 -14 -30 -5 -8 6 -25 8 -39 5 -19 -5 -25
-3 -25 10 0 13 6 15 30 11 28 -6 29 -5 20 18 -7 19 -6 25 4 25 7 0 29 2 47 5
l34 5 -32 -15 c-33 -15 -43 -38 -21 -51 8 -5 9 0 6 14 -4 12 -2 22 3 22 5 0 9
-5 9 -11 0 -5 5 -7 10 -4 6 3 10 2 10 -3 0 -6 10 -5 25 1 26 13 35 33 10 23
-15 -5 -20 5 -8 17 9 9 33 -12 33 -29 0 -8 -12 -19 -27 -25 -27 -11 -27 -11
-7 -19 12 -5 25 -13 29 -19 3 -6 13 -11 21 -11 9 0 12 5 8 12 -12 19 -5 81 13
107 12 19 13 25 2 32 -20 12 -35 11 -22 -2 15 -15 5 -49 -13 -42 -8 3 -11 9
-8 15 3 5 -5 8 -18 7 -40 -4 -59 1 -53 11 4 6 21 8 42 4 26 -5 34 -4 29 5 -4
6 -17 11 -29 11 -12 0 -29 4 -37 9 -21 14 -46 -24 -30 -44 10 -12 9 -15 -4
-15 -10 0 -24 7 -32 15 -8 8 -21 12 -29 9 -8 -4 -15 -1 -15 5 0 6 -6 11 -14
11 -8 0 -16 7 -20 15 -3 8 -14 15 -25 15 -11 0 -23 5 -27 12 -10 15 54 2 75
-16 9 -7 27 -16 41 -19 21 -5 31 0 53 28 24 30 26 39 18 67 l-9 33 -1 -32z
m-618 -143 c-16 -14 -65 -22 -61 -9 2 7 12 13 22 15 10 1 20 5 23 8 3 3 10 3
15 0 5 -4 6 -10 1 -14z m567 -1 c0 -6 -4 -7 -10 -4 -5 3 -10 11 -10 16 0 6 5
7 10 4 6 -3 10 -11 10 -16z m-1170 -14 c-7 -8 -19 -15 -27 -15 -11 0 -11 3 -1
15 18 20 45 21 28 0z m530 5 c0 -5 -8 -10 -17 -10 -15 0 -16 2 -3 10 19 12 20
12 20 0z m-120 -63 c0 -20 0 -20 -15 -1 -19 25 -19 35 0 28 8 -4 15 -16 15
-27z m382 -6 c16 -19 16 -20 -3 -26 -22 -7 -42 5 -21 12 10 4 10 8 1 19 -6 8
-7 14 -2 14 5 0 16 -9 25 -19z m388 -16 c0 -7 -58 -35 -72 -35 -7 1 3 9 22 20
35 19 50 24 50 15z m-630 -40 c0 -19 -24 -30 -41 -19 -9 5 -7 11 6 21 24 17
35 17 35 -2z m-20 -49 c0 -17 -14 -29 -23 -20 -8 8 3 34 14 34 5 0 9 -6 9 -14z
m877 -1 c0 -18 -28 -16 -35 3 -2 7 5 12 16 12 10 0 19 -7 19 -15z m-82 -15 c3
-5 1 -10 -4 -10 -6 0 -11 5 -11 10 0 6 2 10 4 10 3 0 8 -4 11 -10z m-1530 -25
c0 -10 -6 -20 -12 -22 -8 -3 -13 5 -13 22 0 17 5 25 13 23 6 -3 12 -13 12 -23z
m765 15 c0 -5 -7 -10 -15 -10 -8 0 -15 5 -15 10 0 6 7 10 15 10 8 0 15 -4 15
-10z m127 -37 c12 -3 28 -13 37 -22 13 -15 11 -16 -27 -15 -59 2 -64 3 -47 14
13 8 12 10 -2 10 -10 0 -18 7 -18 16 0 12 5 14 18 9 9 -4 27 -10 39 -12z
m-727 -30 c0 -13 -33 -43 -48 -43 -12 0 -12 3 -2 15 7 8 16 12 21 9 5 -3 9 2
9 10 0 9 5 16 10 16 6 0 10 -3 10 -7z m573 -13 c16 -19 16 -20 -3 -20 -13 0
-20 7 -20 20 0 11 1 20 3 20 1 0 10 -9 20 -20z m-709 -57 c-26 -19 -34 -16
-34 11 0 28 30 40 44 17 6 -10 3 -18 -10 -28z m46 33 c0 -8 -4 -18 -10 -21 -5
-3 -10 3 -10 14 0 12 5 21 10 21 6 0 10 -6 10 -14z m760 -75 c0 -12 -20 -25
-27 -18 -7 7 6 27 18 27 5 0 9 -4 9 -9z m100 -21 c0 -5 -4 -10 -10 -10 -5 0
-10 5 -10 10 0 6 5 10 10 10 6 0 10 -4 10 -10z m110 -32 c0 -4 -9 -8 -21 -8
-11 0 -18 4 -15 8 3 5 12 9 21 9 8 0 15 -4 15 -9z m-740 -40 l0 -43 -15 28
c-14 27 -11 57 6 57 5 0 9 -19 9 -42z m-36 -26 c0 -12 5 -22 13 -22 11 0 14
-17 12 -77 -1 -78 6 -113 22 -113 5 0 9 -4 9 -10 0 -5 -7 -10 -15 -10 -9 0
-18 -12 -21 -30 -4 -16 -13 -35 -20 -41 -14 -12 -20 -44 -6 -36 8 6 10 -12 17
-128 4 -68 3 -76 -8 -54 -7 15 -18 24 -26 21 -24 -8 -31 21 -31 145 l0 122 35
7 c55 10 43 28 -14 20 -43 -6 -56 -3 -101 24 -28 16 -55 30 -60 30 -6 0 -10
37 -10 85 l0 84 88 4 c119 4 117 5 116 -21z m67 -119 c1 -10 0 -29 -1 -42 -1
-14 2 -21 9 -17 6 4 11 0 11 -8 0 -19 -11 -20 -32 -3 -11 8 -14 23 -11 50 5
37 22 52 24 20z"/>
<path d="M1406 971 c15 -15 114 -51 114 -42 0 8 -56 36 -72 36 -3 0 -10 3 -14
8 -4 4 -14 7 -23 7 -9 0 -11 -3 -5 -9z"/>
<path d="M1530 600 c0 -5 5 -10 11 -10 5 0 7 5 4 10 -3 6 -8 10 -11 10 -2 0
-4 -4 -4 -10z"/>
<path d="M1649 1655 c0 0 -2 -11 -5 -25 -3 -23 -3 -23 10 -7 7 9 21 17 30 17
10 0 15 4 11 9 -4 7 -36 11 -46 6z"/>
<path d="M1840 1650 c0 -13 11 -13 30 0 12 8 11 10 -7 10 -13 0 -23 -4 -23
-10z"/>
<path d="M233 1635 c-8 -22 6 -33 17 -15 13 20 12 30 0 30 -6 0 -13 -7 -17
-15z"/>
<path d="M280 1639 c0 -5 5 -7 10 -4 6 3 10 8 10 11 0 2 -4 4 -10 4 -5 0 -10
-5 -10 -11z"/>
<path d="M1785 1630 c28 -12 47 -12 40 0 -3 6 -18 10 -33 9 -24 0 -25 -1 -7
-9z"/>
<path d="M1617 1623 c-4 -3 -7 -11 -7 -17 0 -6 5 -5 12 2 6 6 9 14 7 17 -3 3
-9 2 -12 -2z"/>
<path d="M1749 1617 c6 -8 7 -18 3 -22 -4 -5 -1 -5 6 -1 7 4 20 2 28 -5 8 -6
17 -9 21 -6 3 4 13 1 21 -5 20 -17 42 -18 42 -2 0 8 10 14 26 14 22 0 24 2 14
15 -11 13 -15 12 -37 -5 -24 -19 -26 -19 -39 -3 -7 10 -16 15 -19 11 -4 -4
-23 -1 -42 7 -28 12 -33 12 -24 2z"/>
<path d="M1970 1620 c0 -5 5 -10 10 -10 6 0 10 5 10 10 0 6 -4 10 -10 10 -5 0
-10 -4 -10 -10z"/>
<path d="M1665 1610 c-3 -6 1 -7 9 -4 18 7 21 14 7 14 -6 0 -13 -4 -16 -10z"/>
<path d="M1978 1593 c6 -2 18 -2 25 0 6 3 1 5 -13 5 -14 0 -19 -2 -12 -5z"/>
<path d="M2015 1581 c-7 -24 -22 -26 -49 -6 -29 22 -42 18 -21 -5 24 -27 72
-27 80 1 4 11 5 23 2 26 -3 2 -8 -5 -12 -16z"/>
<path d="M1216 1581 c-12 -5 -16 -10 -9 -14 6 -4 19 -4 28 -1 14 6 16 3 11
-14 -5 -15 -2 -22 15 -27 11 -4 26 -2 32 4 8 8 6 11 -6 11 -10 0 -23 11 -29
25 -12 27 -13 27 -42 16z"/>
<path d="M1536 1582 c-2 -4 4 -9 15 -9 10 -1 19 2 19 8 0 11 -27 12 -34 1z"/>
<path d="M1715 1580 c11 -5 27 -9 35 -9 13 -1 13 0 0 9 -8 5 -24 9 -35 9 -20
0 -20 0 0 -9z"/>
<path d="M2113 1583 c-23 -9 -14 -33 12 -33 23 0 24 2 15 20 -6 11 -12 20 -13
19 -1 0 -8 -3 -14 -6z"/>
<path d="M2045 1570 c-3 -5 -1 -10 4 -10 6 0 11 5 11 10 0 6 -2 10 -4 10 -3 0
-8 -4 -11 -10z"/>
<path d="M1907 1556 c-15 -12 -15 -15 -2 -26 10 -8 24 -9 42 -4 l28 8 -27 4
c-18 2 -25 8 -21 18 6 17 3 17 -20 0z"/>
<path d="M510 1533 c0 -13 5 -23 11 -23 7 0 9 -9 6 -21 -5 -20 -3 -21 39 -14
31 4 44 3 44 -6 0 -8 4 -8 16 1 8 8 14 25 12 39 -2 21 -9 27 -33 29 -16 2 -26
0 -22 -5 5 -4 14 -8 20 -8 7 0 13 -8 15 -17 2 -11 -3 -18 -12 -18 -9 0 -16 5
-16 10 0 6 -11 16 -25 22 -16 7 -22 15 -16 22 6 7 1 11 -15 11 -18 0 -24 -5
-24 -22z"/>
<path d="M760 1551 c0 -6 -11 -17 -25 -23 -14 -6 -25 -17 -25 -25 0 -8 -6 -13
-12 -11 -20 4 -58 -21 -58 -37 0 -28 36 -15 79 29 27 27 49 42 58 39 11 -4 14
0 12 12 -4 20 -29 33 -29 16z"/>
<path d="M1170 1551 c0 -6 5 -13 10 -16 6 -3 9 -27 7 -53 -2 -36 -7 -48 -21
-50 -14 -3 -17 0 -12 13 3 9 9 28 12 42 6 23 5 24 -14 12 -24 -15 -37 -39 -22
-39 6 0 10 -9 10 -20 0 -25 25 -36 45 -20 24 20 46 -5 40 -46 -4 -36 5 -43 25
-19 7 8 18 15 26 15 7 0 15 4 19 9 3 6 -8 8 -25 6 -41 -5 -39 17 5 56 20 18
35 40 34 53 0 20 -1 20 -12 2 -28 -43 -44 -59 -55 -52 -9 5 -8 13 3 30 16 25
11 38 -11 29 -8 -3 -14 1 -14 9 0 15 -30 48 -43 48 -4 0 -7 -4 -7 -9z m57 -96
c-1 -27 -4 -32 -14 -23 -7 5 -11 13 -9 17 1 3 6 14 9 24 10 27 15 20 14 -18z"/>
<path d="M1465 1540 c-3 -5 -1 -10 4 -10 6 0 11 5 11 10 0 6 -2 10 -4 10 -3 0
-8 -4 -11 -10z"/>
<path d="M1768 1538 c6 -6 23 -5 43 0 l34 10 -43 -1 c-25 0 -39 -4 -34 -9z"/>
<path d="M2390 1546 c0 -2 7 -7 16 -10 8 -3 12 -2 9 4 -6 10 -25 14 -25 6z"/>
<path d="M1560 1520 c0 -5 7 -7 15 -4 8 4 15 8 15 10 0 2 -7 4 -15 4 -8 0 -15
-4 -15 -10z"/>
<path d="M792 1495 c-16 -8 -20 -15 -12 -20 23 -14 32 -57 15 -75 -22 -24 -19
-36 4 -16 12 11 21 14 26 7 3 -6 11 -11 17 -11 7 0 7 4 1 13 -6 6 -13 24 -17
40 -5 20 -3 27 9 27 8 0 15 7 15 15 0 17 -16 20 -25 5 -3 -5 -12 -10 -18 -10
-7 0 -4 7 6 14 33 26 19 33 -21 11z"/>
<path d="M315 1488 c-33 -5 -64 -14 -70 -20 -7 -7 -1 -8 20 -5 26 5 127 20
147 21 3 1 9 3 12 6 9 9 -45 8 -109 -2z"/>
<path d="M1928 1473 c7 -3 16 -2 19 1 4 3 -2 6 -13 5 -11 0 -14 -3 -6 -6z"/>
<path d="M712 1448 c-7 -7 -12 -18 -12 -26 0 -7 -5 -10 -11 -6 -7 4 -42 7 -78
8 l-66 1 0 -37 c0 -21 2 -38 6 -38 14 0 17 -85 3 -129 -7 -26 -14 -63 -14 -82
1 -113 -2 -106 31 -89 10 6 19 17 19 25 0 17 16 20 25 5 3 -5 16 -10 28 -10
16 0 18 3 9 12 -20 20 -14 28 12 17 19 -9 29 -8 46 4 12 9 27 14 34 11 6 -2
17 5 24 16 7 11 8 20 3 20 -6 0 -13 -5 -16 -11 -4 -5 -12 -8 -18 -6 -7 2 -17
-3 -22 -10 -8 -11 -17 -12 -37 -4 -24 9 -26 13 -18 47 12 52 31 68 25 21 -4
-32 -2 -37 16 -37 18 0 19 3 9 15 -6 8 -9 22 -6 32 3 10 6 41 7 68 1 53 16
105 30 105 14 0 22 -21 11 -32 -6 -6 -8 -16 -6 -23 3 -7 1 -16 -5 -20 -6 -3
-11 -11 -11 -18 0 -6 13 3 29 21 33 36 41 39 41 17 0 -10 10 -15 29 -15 21 0
30 -6 35 -22 9 -34 8 -38 -10 -38 -14 0 -14 -2 1 -16 9 -9 17 -15 18 -13 1 2
8 14 15 27 10 18 10 26 0 42 -7 11 -16 20 -20 20 -15 0 -8 61 8 67 25 10 39
-12 26 -42 -14 -30 -9 -32 16 -7 26 26 12 58 -25 64 -37 5 -55 -14 -47 -47 3
-14 2 -25 -4 -25 -5 0 -13 15 -16 33 -7 31 -7 31 -22 12 -13 -17 -16 -18 -24
-5 -5 8 -10 18 -10 21 0 10 -38 18 -59 12 -22 -6 -35 -43 -21 -57 15 -15 12
-36 -5 -36 -8 0 -15 5 -15 11 0 6 -17 9 -42 8 -28 -3 -43 1 -46 10 -4 11 3 13
30 8 39 -6 71 6 43 17 -9 3 -32 6 -51 6 -36 0 -37 2 -28 38 6 21 11 23 45 17
26 -4 39 -3 39 4 0 6 5 11 11 11 5 0 7 -4 4 -10 -3 -5 -2 -10 4 -10 5 0 17 -3
27 -7 14 -5 16 -3 11 12 -4 9 -2 24 4 32 15 17 7 27 -9 11z m-12 -179 c0 -15
-104 -109 -120 -109 -5 0 -10 -7 -10 -15 0 -17 2 -18 24 -9 9 3 16 12 16 20 0
8 7 14 16 14 11 0 14 -6 8 -22 -10 -35 -25 -49 -45 -43 -14 5 -16 1 -12 -15 3
-11 0 -20 -6 -20 -14 0 -15 106 -1 115 6 3 10 16 10 27 0 12 7 30 17 40 15 17
15 18 0 18 -28 0 -19 18 11 22 29 3 92 -13 92 -23z"/>
<path d="M618 1240 c-20 -35 -8 -40 22 -8 23 25 26 38 8 38 -7 0 -21 -14 -30
-30z"/>
<path d="M2012 1440 c-16 -27 -16 -27 19 -22 19 3 26 8 19 12 -6 4 -11 11 -10
16 3 17 -16 13 -28 -6z"/>
<path d="M350 1440 c-11 -7 -2 -9 32 -7 26 1 50 6 54 10 11 11 -69 8 -86 -3z"/>
<path d="M490 1439 c0 -5 5 -7 10 -4 6 3 10 8 10 11 0 2 -4 4 -10 4 -5 0 -10
-5 -10 -11z"/>
<path d="M745 1429 c-10 -29 -3 -31 18 -3 15 20 15 24 3 24 -8 0 -18 -9 -21
-21z"/>
<path d="M2075 1430 c10 -11 22 -17 27 -14 5 3 1 12 -9 20 -27 20 -39 17 -18
-6z"/>
<path d="M850 1430 c0 -5 5 -10 10 -10 6 0 10 5 10 10 0 6 -4 10 -10 10 -5 0
-10 -4 -10 -10z"/>
<path d="M1297 1429 c-9 -6 -15 -14 -12 -20 10 -15 22 -10 28 11 3 11 4 20 4
20 -1 0 -10 -5 -20 -11z"/>
<path d="M2852 1420 c0 -14 2 -19 5 -12 2 6 2 18 0 25 -3 6 -5 1 -5 -13z"/>
<path d="M1328 1403 c7 -3 16 -2 19 1 4 3 -2 6 -13 5 -11 0 -14 -3 -6 -6z"/>
<path d="M1360 1390 c0 -11 4 -20 9 -20 5 0 7 9 4 20 -3 11 -7 20 -9 20 -2 0
-4 -9 -4 -20z"/>
<path d="M495 1390 c3 -5 8 -10 11 -10 2 0 4 5 4 10 0 6 -5 10 -11 10 -5 0 -7
-4 -4 -10z"/>
<path d="M1022 1388 c-17 -17 -15 -28 6 -25 17 2 22 8 22 27 0 14 -13 13 -28
-2z"/>
<path d="M1140 1386 c0 -17 24 -28 45 -20 17 7 21 34 5 34 -5 0 -10 -5 -10
-10 0 -7 -6 -7 -20 0 -16 8 -20 8 -20 -4z"/>
<path d="M608 1383 c6 -2 18 -2 25 0 6 3 1 5 -13 5 -14 0 -19 -2 -12 -5z"/>
<path d="M2190 1383 c-8 -2 -22 -7 -30 -9 -13 -5 -12 -7 3 -15 27 -15 20 -30
-10 -23 -26 6 -27 6 -11 -11 11 -12 22 -15 35 -10 10 4 28 7 40 6 11 -1 24 3
28 8 3 6 19 11 35 11 16 0 32 5 36 11 5 9 -1 10 -20 5 -15 -4 -26 -2 -26 4 0
6 -11 3 -24 -5 -19 -13 -29 -14 -45 -5 -30 16 -26 23 9 17 31 -7 42 6 14 17
-9 3 -16 6 -17 5 -1 0 -9 -3 -17 -6z"/>
<path d="M2750 1386 c0 -2 7 -6 15 -10 8 -3 15 -1 15 4 0 6 -7 10 -15 10 -8 0
-15 -2 -15 -4z"/>
<path d="M1738 1358 c-17 -11 -28 -24 -25 -32 3 -8 -3 -22 -14 -32 -16 -15
-23 -15 -43 -5 -19 11 -29 10 -57 -4 -19 -10 -37 -22 -41 -28 -10 -16 -3 -60
11 -65 7 -2 8 3 3 19 -7 18 -4 28 16 46 14 13 28 23 33 23 19 0 59 -21 59 -30
0 -6 7 -18 15 -26 17 -18 18 -14 6 19 -8 20 -6 30 9 47 11 13 17 27 14 32 -3
4 -2 8 3 7 20 -3 33 2 31 13 -2 6 9 13 24 14 15 2 35 7 45 12 13 8 9 10 -21 9
-20 -1 -51 -9 -68 -19z"/>
<path d="M2806 1371 c-11 -4 -15 -10 -10 -14 14 -8 55 3 48 14 -6 10 -12 10
-38 0z"/>
<path d="M1083 1352 c-17 -2 -34 -10 -37 -18 -9 -24 4 -36 20 -19 19 19 40 9
23 -11 -6 -8 -22 -14 -36 -14 -20 0 -22 -3 -13 -19 5 -11 7 -26 5 -34 -3 -7 2
-20 11 -28 16 -13 17 -11 11 23 -5 34 -3 39 21 50 16 8 27 21 27 33 0 14 6 19
18 17 9 -2 17 3 17 9 0 7 -3 9 -7 6 -3 -4 -11 -3 -17 1 -6 4 -25 6 -43 4z"/>
<path d="M2470 1349 c-13 -8 -13 -11 3 -20 9 -5 17 -14 17 -19 0 -12 -25 -7
-44 9 -17 14 -46 9 -46 -9 0 -5 11 -10 25 -10 14 0 34 -5 45 -12 23 -15 33 -7
33 27 0 33 -14 47 -33 34z"/>
<path d="M448 1343 c7 -3 16 -2 19 1 4 3 -2 6 -13 5 -11 0 -14 -3 -6 -6z"/>
<path d="M486 1335 c-11 -9 -14 -15 -7 -15 7 0 19 7 27 15 20 19 5 19 -20 0z"/>
<path d="M1174 1330 c4 -39 35 -102 47 -95 6 4 6 11 1 18 -5 7 -12 23 -15 37
-3 14 -13 34 -21 45 -14 19 -15 19 -12 -5z"/>
<path d="M986 1331 c-4 -5 -13 -8 -21 -4 -16 5 -20 -8 -7 -21 4 -4 7 -13 7
-18 0 -23 20 -17 33 9 12 26 1 56 -12 34z"/>
<path d="M1760 1318 c-24 -14 -30 -23 -20 -26 7 -3 16 0 18 7 2 6 8 9 13 5 5
-3 12 1 15 10 3 8 12 12 20 9 8 -3 14 0 14 6 0 17 -21 13 -60 -11z"/>
<path d="M173 1290 c-2 -18 0 -18 13 -6 17 18 18 26 1 26 -7 0 -13 -9 -14 -20z"/>
<path d="M245 1292 c13 -46 14 -86 2 -95 -9 -6 -8 -7 3 -4 20 5 22 75 3 102
-15 20 -15 20 -8 -3z"/>
<path d="M2180 1300 c0 -5 5 -10 10 -10 6 0 10 5 10 10 0 6 -4 10 -10 10 -5 0
-10 -4 -10 -10z"/>
<path d="M2521 1287 c-11 -18 -11 -20 0 -9 13 12 38 18 26 5 -4 -3 -2 -12 4
-20 10 -11 14 -10 24 3 6 10 17 14 23 10 15 -9 3 -38 -14 -32 -21 8 -28 -14
-10 -32 16 -16 18 -16 27 0 5 9 15 23 22 30 6 7 13 21 15 32 3 14 -1 18 -17
13 -11 -2 -21 -1 -23 4 -2 4 -17 10 -33 13 -24 4 -33 1 -44 -17z"/>
<path d="M1134 1286 c-3 -8 -19 -18 -36 -21 -22 -5 -27 -10 -19 -18 8 -8 14
-8 23 1 16 16 28 15 28 -3 0 -9 -7 -18 -15 -21 -19 -8 -20 -24 -1 -24 12 0 27
27 30 57 1 6 5 15 9 19 10 11 9 24 -3 24 -6 0 -13 -6 -16 -14z"/>
<path d="M1783 1293 c-13 -2 -23 -9 -23 -14 0 -11 39 -2 55 12 9 9 7 10 -32 2z"/>
<path d="M2660 1285 c-17 -20 -8 -27 24 -19 29 7 34 19 10 28 -21 8 -20 8 -34
-9z"/>
<path d="M311 1266 c-8 -14 -12 -29 -8 -32 7 -7 29 34 25 47 -2 6 -10 -1 -17
-15z"/>
<path d="M475 1279 c-12 -18 1 -20 31 -4 l29 15 -27 0 c-15 0 -30 -5 -33 -11z"/>
<path d="M780 1283 c-27 -6 -65 -123 -40 -123 6 0 10 5 10 10 0 19 42 10 47
-9 3 -12 11 -17 20 -14 8 3 18 1 22 -5 4 -7 12 -8 20 -2 10 6 3 14 -28 29 -23
12 -39 26 -36 31 10 16 33 12 44 -7 5 -10 12 -16 14 -13 3 3 -5 23 -19 45
l-23 40 -11 -32 c-6 -17 -20 -33 -31 -36 -22 -6 -26 11 -5 19 8 3 12 12 9 20
-3 8 3 21 13 29 21 15 18 23 -6 18z"/>
<path d="M910 1283 c0 -14 17 -35 26 -34 19 2 8 -24 -11 -28 -20 -3 -35 -18
-35 -35 0 -5 8 -2 18 7 10 10 23 17 29 17 17 0 36 27 23 35 -6 3 -8 10 -5 15
3 5 -3 14 -14 19 -23 13 -31 14 -31 4z"/>
<path d="M2371 1281 c-8 -6 -9 -11 -3 -15 6 -3 14 -1 17 5 9 14 2 20 -14 10z"/>
<path d="M2401 1264 c-11 -14 -18 -30 -15 -35 7 -12 -29 2 -37 14 -4 5 -9 5
-13 -1 -9 -15 69 -53 82 -40 8 8 8 17 1 30 -7 14 -7 24 2 34 6 8 9 17 7 20 -3
3 -15 -7 -27 -22z"/>
<path d="M400 1276 c0 -2 7 -6 15 -10 8 -3 15 -1 15 4 0 6 -7 10 -15 10 -8 0
-15 -2 -15 -4z"/>
<path d="M1340 1265 c0 -17 9 -19 28 -6 11 7 10 10 -3 15 -23 9 -25 8 -25 -9z"/>
<path d="M1720 1271 c0 -5 6 -14 14 -20 12 -10 13 -8 9 8 -5 21 -23 30 -23 12z"/>
<path d="M2460 1265 c0 -8 -8 -18 -17 -24 -10 -5 -16 -12 -13 -14 3 -3 18 5
33 17 24 19 26 24 13 29 -10 4 -16 1 -16 -8z"/>
<path d="M185 1260 c-3 -5 1 -10 9 -10 9 0 16 5 16 10 0 6 -4 10 -9 10 -6 0
-13 -4 -16 -10z"/>
<path d="M2872 1248 c-6 -14 -25 -34 -41 -44 -40 -23 -40 -35 0 -24 26 8 30 6
27 -8 -2 -9 -12 -17 -23 -17 -11 0 -28 -12 -37 -27 -10 -16 -25 -28 -33 -28
-9 0 -13 5 -10 10 3 6 13 10 21 10 8 0 12 5 9 11 -4 6 -14 8 -23 4 -30 -11
-32 18 -2 37 19 11 28 23 24 33 -7 18 -24 10 -24 -11 0 -8 -4 -13 -9 -9 -5 3
-12 1 -16 -5 -3 -5 -19 -10 -35 -10 -22 0 -28 -4 -24 -15 5 -11 0 -14 -16 -13
-13 2 -25 -3 -28 -11 -3 -10 0 -12 11 -8 11 4 22 -2 32 -16 9 -13 11 -23 5
-25 -5 -2 -10 -10 -10 -18 0 -8 -7 -14 -16 -14 -11 0 -14 -6 -9 -22 5 -20 4
-21 -5 -5 -6 9 -8 22 -5 27 7 11 -33 49 -51 50 -7 0 -15 -8 -18 -17 -6 -14 -9
-15 -15 -4 -6 9 -10 7 -14 -9 -4 -15 -2 -20 8 -17 7 3 18 0 24 -6 6 -6 14 -7
18 -3 4 4 2 11 -6 15 -10 6 -9 10 4 15 23 8 22 9 28 -14 3 -11 0 -20 -6 -20
-6 0 4 -16 23 -35 22 -23 36 -31 41 -23 4 6 5 17 2 24 -2 6 0 15 6 19 6 3 11
14 11 23 1 27 44 53 72 43 l23 -9 -26 -7 c-29 -7 -61 -66 -48 -87 5 -7 9 -23
9 -35 0 -27 16 -29 42 -6 17 15 18 15 18 -1 0 -10 -5 -14 -11 -10 -8 4 -9 -1
-4 -15 6 -19 3 -21 -17 -18 -13 2 -17 2 -10 0 16 -6 16 -23 -1 -23 -8 0 -19
-11 -25 -24 -10 -22 -9 -24 14 -21 34 3 37 7 78 107 42 101 89 277 84 310 -4
23 -5 23 -16 -4z m-152 -92 c0 -2 -7 -9 -15 -16 -13 -11 -14 -10 -9 4 5 14 24
23 24 12z m130 -46 c-6 -10 -18 -24 -28 -29 -9 -6 -13 -11 -9 -11 5 0 5 -6 0
-12 -4 -7 -9 -24 -10 -38 -5 -45 -6 -50 -17 -51 -53 -6 -53 -6 -54 23 0 15 4
26 9 23 5 -4 9 -1 9 4 0 6 -4 11 -10 11 -5 0 -10 5 -10 10 0 6 3 9 8 9 20 -3
32 2 26 13 -4 7 -3 8 5 4 15 -10 43 13 34 27 -7 11 23 37 44 37 11 0 11 -5 3
-20z m-120 0 c0 -4 -7 -11 -16 -14 -22 -8 -24 -8 -24 7 0 7 9 13 20 14 11 1
20 -2 20 -7z"/>
<path d="M990 1246 c0 -9 1 -18 3 -20 1 -2 -7 -13 -17 -25 -11 -12 -14 -21 -7
-21 6 0 14 7 17 15 4 8 12 15 19 15 8 0 11 8 8 20 -7 25 -23 36 -23 16z"/>
<path d="M1615 1248 c-25 -14 -35 -29 -28 -41 3 -5 10 -2 15 7 5 9 16 16 23
16 8 0 15 5 15 11 0 5 5 7 12 3 7 -4 8 -3 4 4 -9 15 -15 15 -41 0z"/>
<path d="M2485 1242 c-16 -11 -36 -26 -43 -34 -10 -13 -9 -16 9 -21 13 -4 19
-10 14 -19 -3 -7 0 -5 8 5 17 21 28 22 21 3 -4 -12 1 -14 21 -10 15 3 40 -2
57 -11 34 -17 47 -13 30 8 -7 8 -9 16 -6 20 3 3 -3 3 -15 0 -12 -3 -21 -1 -21
6 0 17 -28 13 -38 -5 -8 -14 -10 -14 -14 3 -4 15 3 25 24 38 23 13 27 19 17
26 -20 13 -31 11 -64 -9z m-9 -39 c-10 -10 -19 5 -10 18 6 11 8 11 12 0 2 -7
1 -15 -2 -18z"/>
<path d="M2765 1249 c-4 -6 -5 -12 -2 -15 2 -3 7 2 10 11 7 17 1 20 -8 4z"/>
<path d="M1775 1240 c-3 -5 1 -10 9 -10 23 0 20 -17 -4 -25 -11 -3 -20 -11
-20 -16 0 -5 -9 -9 -19 -9 -11 0 -23 -5 -26 -10 -4 -6 -11 -8 -16 -5 -10 7
-13 -8 -3 -18 8 -8 59 15 89 41 16 14 34 21 46 17 10 -3 28 -8 39 -11 11 -3
20 -1 20 5 0 6 -7 11 -15 11 -8 0 -30 9 -50 20 -41 23 -42 23 -50 10z"/>
<path d="M485 1229 c-4 -6 -5 -13 -2 -16 7 -7 27 6 27 18 0 12 -17 12 -25 -2z"/>
<path d="M400 1226 c0 -9 30 -14 35 -6 4 6 -3 10 -14 10 -12 0 -21 -2 -21 -4z"/>
<path d="M1630 1210 c-19 -15 -21 -20 -9 -20 16 0 46 27 38 35 -2 2 -15 -5
-29 -15z"/>
<path d="M2310 1201 c0 -6 5 -13 10 -16 6 -3 10 1 10 9 0 9 -4 16 -10 16 -5 0
-10 -4 -10 -9z"/>
<path d="M265 1170 c-10 -20 -12 -30 -4 -30 7 0 9 -9 5 -25 -4 -15 -2 -25 4
-25 6 0 10 17 9 38 -1 20 2 45 6 55 12 29 -3 19 -20 -13z"/>
<path d="M2351 1176 c-11 -12 -21 -26 -21 -30 0 -5 9 2 19 15 15 18 22 21 31
12 9 -8 7 -14 -9 -22 -26 -14 -28 -35 -3 -27 15 5 18 0 16 -36 -1 -24 -5 -51
-9 -61 -6 -13 3 -27 34 -54 28 -24 39 -39 32 -47 -5 -6 -12 -33 -16 -59 -7
-43 -5 -49 13 -54 11 -2 23 -14 25 -25 8 -28 27 -13 26 20 0 23 -1 24 -8 7 -8
-19 -8 -19 -19 2 -9 15 -9 36 -2 74 7 39 7 55 -1 60 -11 7 -10 24 6 62 6 14 2
17 -19 17 -14 0 -26 -4 -26 -10 0 -5 7 -7 15 -4 8 4 15 1 15 -5 0 -13 -29 -14
-49 -2 -11 7 -9 15 10 41 17 23 20 34 12 37 -7 3 -13 16 -13 29 0 13 -3 23 -7
22 -5 -2 -9 2 -9 7 -1 6 3 9 9 7 5 -2 14 3 20 10 6 9 7 8 3 -4 -3 -10 0 -18 6
-18 7 0 6 -5 -2 -15 -8 -10 -9 -15 -2 -15 16 0 33 36 26 55 -5 11 -15 15 -31
12 -13 -2 -30 1 -37 9 -11 11 -17 9 -35 -10z"/>
<path d="M332 1178 c-7 -7 -12 -19 -12 -27 0 -11 5 -8 16 7 18 25 15 39 -4 20z"/>
<path d="M424 1175 c-4 -10 -14 -15 -25 -12 -11 3 -19 0 -19 -8 0 -20 58 -13
64 7 6 23 -12 34 -20 13z"/>
<path d="M1050 1169 c0 -17 3 -18 20 -9 11 6 20 12 20 14 0 2 -9 6 -20 9 -15
4 -20 0 -20 -14z"/>
<path d="M1853 1178 c5 -13 1 -18 -14 -18 -22 0 -75 -25 -101 -47 -9 -8 -21
-12 -27 -8 -7 3 -8 0 -5 -9 3 -9 17 -16 29 -16 15 0 26 -8 30 -20 3 -11 11
-20 16 -20 6 0 7 5 3 12 -4 7 -3 8 4 4 17 -10 52 17 43 33 -6 9 -11 10 -15 2
-8 -13 -45 -14 -64 -2 -10 6 -5 14 21 30 19 11 43 21 54 21 30 0 50 27 33 43
-10 10 -12 9 -7 -5z"/>
<path d="M2174 1182 c-12 -2 -24 -11 -27 -20 -3 -9 -8 -26 -13 -37 -5 -12 7
-5 30 18 41 41 42 45 10 39z"/>
<path d="M190 1145 c0 -19 4 -35 9 -35 5 0 9 16 8 35 -3 46 -17 46 -17 0z"/>
<path d="M495 1169 c-11 -17 1 -21 15 -4 8 9 8 15 2 15 -6 0 -14 -5 -17 -11z"/>
<path d="M920 1170 c0 -5 5 -10 11 -10 5 0 7 5 4 10 -3 6 -8 10 -11 10 -2 0
-4 -4 -4 -10z"/>
<path d="M1010 1159 c0 -5 5 -7 10 -4 6 3 10 8 10 11 0 2 -4 4 -10 4 -5 0 -10
-5 -10 -11z"/>
<path d="M1101 1159 c0 -9 6 -22 14 -29 10 -9 15 -9 15 -1 0 6 -4 11 -9 11 -5
0 -12 8 -14 18 -4 14 -5 14 -6 1z"/>
<path d="M1595 1150 c-3 -5 1 -10 10 -10 9 0 13 5 10 10 -3 6 -8 10 -10 10 -2
0 -7 -4 -10 -10z"/>
<path d="M2281 1153 c9 -2 31 -24 49 -48 19 -25 36 -43 38 -40 3 2 0 10 -6 17
-6 7 -10 17 -11 21 -1 21 -41 57 -62 56 -15 -1 -18 -3 -8 -6z"/>
<path d="M2466 1134 c-9 -25 1 -29 20 -9 19 18 72 14 85 -6 4 -7 12 -8 19 -4
23 14 -20 35 -71 35 -34 0 -49 -4 -53 -16z"/>
<path d="M1065 1127 c-11 -7 -20 -22 -21 -34 0 -12 3 -20 8 -17 4 3 8 14 8 25
0 10 7 19 15 19 8 0 15 5 15 10 0 12 0 12 -25 -3z"/>
<path d="M874 1089 c0 -33 -6 -45 -27 -61 -15 -11 -27 -24 -27 -29 0 -16 43
-69 51 -63 14 9 20 -16 11 -49 -7 -24 -6 -36 4 -45 7 -6 15 -12 18 -12 3 0 4
38 3 85 -2 82 -9 106 -20 65 -5 -20 -37 -29 -37 -10 0 19 32 60 47 60 8 0 12
4 9 9 -4 5 -7 28 -8 50 -2 54 -24 54 -24 0z"/>
<path d="M2507 1119 c-11 -6 -25 -25 -33 -43 -7 -17 -13 -25 -14 -18 0 6 -8
12 -17 12 -36 0 6 -23 46 -25 29 -2 38 1 34 11 -2 7 -12 10 -20 7 -21 -8 -7
16 19 35 33 24 20 41 -15 21z"/>
<path d="M380 1105 c0 -7 13 -12 30 -11 39 1 39 12 0 18 -19 3 -30 0 -30 -7z"/>
<path d="M816 1111 c-3 -5 1 -11 9 -15 9 -3 15 0 15 9 0 16 -16 20 -24 6z"/>
<path d="M923 1097 c22 -40 46 -71 53 -65 6 7 -25 68 -41 80 -19 14 -24 8 -12
-15z"/>
<path d="M1090 1101 c0 -5 7 -11 15 -15 9 -3 15 0 15 9 0 8 -7 15 -15 15 -8 0
-15 -4 -15 -9z"/>
<path d="M1137 1070 c-10 -27 -14 -29 -49 -24 -31 5 -38 4 -38 -10 0 -13 11
-16 54 -16 l54 0 0 40 c1 48 -6 51 -21 10z"/>
<path d="M738 1069 c-7 -11 -28 -29 -46 -40 -18 -12 -37 -30 -43 -41 -9 -17
-8 -19 9 -14 11 4 23 2 26 -3 4 -6 14 -7 22 -4 9 3 19 0 24 -6 5 -9 9 -6 13 9
5 19 2 21 -21 16 -29 -6 -62 8 -49 21 5 4 28 8 52 8 38 0 42 2 30 14 -12 12
-11 17 2 37 9 15 11 24 4 24 -6 0 -16 -9 -23 -21z"/>
<path d="M798 1068 c-4 -24 -2 -28 16 -28 13 0 16 3 10 8 -7 4 -14 16 -16 27
-3 17 -5 15 -10 -7z"/>
<path d="M267 1073 c-4 -3 -7 -11 -7 -17 0 -6 5 -5 12 2 6 6 9 14 7 17 -3 3
-9 2 -12 -2z"/>
<path d="M1180 1051 c0 -17 5 -31 10 -31 6 0 10 11 10 24 0 14 -4 28 -10 31
-6 4 -10 -7 -10 -24z"/>
<path d="M1004 1056 c-6 -17 2 -36 17 -36 12 0 12 37 -1 45 -6 3 -13 -1 -16
-9z"/>
<path d="M341 942 c-24 -64 -46 -123 -49 -130 -3 -10 2 -13 19 -10 13 2 23 9
21 16 -1 8 2 11 7 8 21 -14 82 -15 87 -2 16 41 9 143 -14 206 -3 8 -4 18 -4
23 1 4 -4 7 -10 7 -7 0 -33 -53 -57 -118z m75 -41 c-4 -20 -6 -43 -7 -53 0 -9
-7 -15 -17 -13 -9 2 -25 4 -36 4 -22 1 -19 30 14 106 l22 50 15 -29 c10 -18
13 -41 9 -65z"/>
<path d="M350 858 c0 -4 4 -8 9 -8 6 0 12 4 15 8 3 5 -1 9 -9 9 -8 0 -15 -4
-15 -9z"/>
<path d="M432 1029 c6 -16 12 -28 15 -26 7 7 -8 57 -18 57 -4 0 -3 -14 3 -31z"/>
<path d="M660 1050 c0 -5 5 -10 10 -10 6 0 10 5 10 10 0 6 -4 10 -10 10 -5 0
-10 -4 -10 -10z"/>
<path d="M2092 1015 c-6 -22 -13 -56 -17 -75 -4 -19 -20 -59 -35 -87 -15 -29
-27 -53 -27 -53 1 0 31 9 65 20 35 11 67 18 71 15 5 -2 6 6 4 19 -4 19 -10 23
-33 20 -34 -4 -44 8 -36 40 5 19 53 53 61 44 1 -2 10 -28 19 -59 22 -79 38
-89 65 -44 28 48 27 57 -3 21 l-23 -30 -12 37 c-7 20 -14 53 -16 73 -4 47 -20
63 -34 35 -6 -11 -20 -25 -31 -31 -17 -9 -19 -8 -13 7 3 10 9 23 13 28 4 6 4
21 0 35 -6 23 -8 22 -18 -15z m-2 -160 c0 -8 -7 -15 -15 -15 -9 0 -12 6 -9 15
4 8 10 15 15 15 5 0 9 -7 9 -15z m50 -1 c0 -2 -9 -4 -21 -4 -11 0 -18 4 -14
10 5 8 35 3 35 -6z"/>
<path d="M2205 1025 c17 -13 35 -24 40 -24 6 0 -3 11 -20 24 -16 14 -34 25
-40 25 -5 0 4 -11 20 -25z"/>
<path d="M260 1030 c0 -5 5 -10 11 -10 5 0 7 5 4 10 -3 6 -8 10 -11 10 -2 0
-4 -4 -4 -10z"/>
<path d="M2170 1014 c25 -15 59 -33 77 -40 29 -12 32 -12 26 1 -3 9 -8 14 -10
11 -3 -3 -32 8 -64 24 -72 37 -90 39 -29 4z"/>
<path d="M2521 1031 c-11 -7 -11 -9 0 -13 12 -4 12 -9 0 -30 -7 -14 -10 -35
-7 -45 4 -11 2 -33 -4 -49 -8 -20 -8 -30 -1 -32 6 -2 8 -8 5 -13 -6 -10 34
-119 43 -119 2 0 13 5 24 10 15 8 19 20 17 53 -1 37 -2 38 -5 10 -3 -21 -10
-33 -19 -33 -11 0 -13 6 -9 21 6 18 4 20 -15 14 -15 -5 -20 -4 -16 4 4 6 14
11 22 11 8 0 14 7 14 15 0 9 6 12 15 9 21 -8 19 20 -5 91 -24 69 -25 81 -5 65
8 -6 20 -10 27 -7 7 3 -1 10 -19 17 -18 7 -33 16 -33 21 0 11 -11 11 -29 0z
m38 -121 c0 -11 -3 -10 -14 4 -8 11 -15 29 -15 40 1 19 2 19 15 -4 8 -14 14
-32 14 -40z m-24 -10 c3 -5 1 -10 -4 -10 -6 0 -11 5 -11 10 0 6 2 10 4 10 3 0
8 -4 11 -10z m23 -47 c-30 -30 -40 -28 -31 5 4 16 13 22 31 22 l27 0 -27 -27z"/>
<path d="M472 997 l0 -34 59 -2 c32 -1 59 2 59 7 0 17 -48 49 -82 56 -35 6
-36 6 -36 -27z m82 -6 c3 -5 0 -11 -8 -14 -15 -6 -26 1 -26 15 0 11 27 10 34
-1z"/>
<path d="M928 1024 c-3 -2 -3 -16 0 -29 3 -20 10 -25 33 -25 16 0 29 4 29 9 0
5 -9 7 -20 4 -15 -4 -20 0 -20 15 0 21 -13 36 -22 26z"/>
<path d="M606 1005 c-11 -8 -15 -15 -10 -15 6 0 19 7 30 15 10 8 15 14 9 14
-5 0 -19 -6 -29 -14z"/>
<path d="M2319 1003 c-23 -29 -39 -62 -39 -79 0 -14 3 -14 15 -4 13 11 14 10
9 -4 -4 -10 1 -24 10 -35 11 -12 14 -27 10 -48 -3 -18 -1 -33 5 -37 6 -4 11
-6 11 -4 0 2 5 41 10 87 11 81 7 141 -9 141 -4 0 -14 -8 -22 -17z m3 -55 c-7
-7 -12 -8 -12 -2 0 14 12 26 19 19 2 -3 -1 -11 -7 -17z m18 -43 c0 -8 -2 -15
-4 -15 -2 0 -6 7 -10 15 -3 8 -1 15 4 15 6 0 10 -7 10 -15z"/>
<path d="M1007 995 c-4 -8 -2 -17 3 -20 6 -4 10 3 10 14 0 25 -6 27 -13 6z"/>
<path d="M2485 1001 c-3 -5 -1 -12 5 -16 5 -3 10 1 10 9 0 18 -6 21 -15 7z"/>
<path d="M267 983 c-10 -9 -9 -23 2 -23 5 0 11 7 15 15 5 15 -5 20 -17 8z"/>
<path d="M600 960 c0 -5 5 -10 10 -10 6 0 10 5 10 10 0 6 -4 10 -10 10 -5 0
-10 -4 -10 -10z"/>
<path d="M2633 954 c-15 -15 -17 -34 -4 -34 8 0 24 41 18 46 -1 1 -8 -4 -14
-12z"/>
<path d="M2684 955 c-9 -22 1 -29 15 -11 8 10 9 16 1 21 -5 3 -13 -1 -16 -10z"/>
<path d="M256 941 c-4 -7 -5 -15 -2 -18 9 -9 19 4 14 18 -4 11 -6 11 -12 0z"/>
<path d="M1205 940 c-3 -5 1 -10 9 -10 9 0 16 5 16 10 0 6 -4 10 -9 10 -6 0
-13 -4 -16 -10z"/>
<path d="M453 926 c2 -6 12 -13 23 -15 10 -2 22 -8 26 -15 5 -6 8 -2 8 10 0
17 -7 23 -30 26 -19 3 -29 1 -27 -6z"/>
<path d="M696 931 c-4 -5 -4 -16 0 -24 3 -8 -2 -17 -11 -21 -9 -3 -14 -10 -10
-15 10 -17 35 0 35 24 0 43 25 43 44 0 3 -6 9 -4 14 4 8 11 4 18 -15 28 -30
15 -50 17 -57 4z"/>
<path d="M1260 924 c0 -8 5 -12 10 -9 6 3 10 10 10 16 0 5 -4 9 -10 9 -5 0
-10 -7 -10 -16z"/>
<path d="M2219 927 c-15 -12 -22 -60 -6 -50 4 3 6 10 4 16 -2 7 2 20 11 30 17
20 14 22 -9 4z"/>
<path d="M2378 933 c6 -2 18 -2 25 0 6 3 1 5 -13 5 -14 0 -19 -2 -12 -5z"/>
<path d="M552 896 c2 -38 14 -37 20 3 1 13 -3 26 -10 29 -9 3 -12 -6 -10 -32z"/>
<path d="M605 918 c-11 -32 -13 -85 -5 -98 11 -17 10 -19 13 50 1 19 6 38 10
41 5 4 4 10 -2 13 -6 4 -13 1 -16 -6z"/>
<path d="M990 914 c0 -8 5 -12 10 -9 6 4 8 11 5 16 -9 14 -15 11 -15 -7z"/>
<path d="M1125 920 c-3 -5 -1 -10 4 -10 6 0 11 5 11 10 0 6 -2 10 -4 10 -3 0
-8 -4 -11 -10z"/>
<path d="M2100 921 c0 -5 5 -13 10 -16 6 -3 10 -2 10 4 0 5 -4 13 -10 16 -5 3
-10 2 -10 -4z"/>
<path d="M1060 905 c0 -8 4 -15 9 -15 5 0 11 7 15 15 3 9 0 15 -9 15 -8 0 -15
-7 -15 -15z"/>
<path d="M1193 863 c-1 -38 -1 -38 9 -10 6 18 7 32 1 38 -6 6 -10 -4 -10 -28z"/>
<path d="M1736 873 c-21 -29 -17 -99 9 -136 15 -21 15 -21 15 11 0 17 -3 32
-8 32 -10 0 -8 82 2 98 15 24 1 20 -18 -5z"/>
<path d="M2255 870 c-10 -11 -16 -22 -14 -24 2 -2 12 7 22 20 22 29 17 32 -8
4z"/>
<path d="M790 860 c0 -5 7 -10 15 -10 8 0 15 5 15 10 0 6 -7 10 -15 10 -8 0
-15 -4 -15 -10z"/>
<path d="M2649 861 c7 -5 10 -14 7 -20 -4 -6 -12 -9 -17 -5 -6 3 -5 -3 2 -14
16 -25 21 -22 26 18 2 23 -1 30 -15 30 -13 0 -14 -2 -3 -9z"/>
<path d="M662 853 c-22 -8 -2 -23 23 -17 21 5 25 1 34 -28 8 -30 9 -31 10 -7
1 16 9 30 24 38 21 11 21 11 -5 6 -15 -3 -37 -1 -50 4 -13 4 -29 6 -36 4z"/>
<path d="M1060 845 c0 -8 5 -15 10 -15 6 0 10 7 10 15 0 8 -4 15 -10 15 -5 0
-10 -7 -10 -15z"/>
<path d="M453 823 c-10 -4 -9 -10 2 -26 22 -34 5 -51 -42 -45 -23 3 -46 1 -56
-7 -14 -10 -8 -12 40 -11 32 1 63 5 68 8 6 4 48 4 94 2 75 -4 86 -2 103 16 10
11 23 20 28 20 6 0 10 7 10 15 0 8 -4 15 -10 15 -5 0 -10 -7 -10 -16 0 -8 -4
-13 -9 -10 -5 3 -11 -1 -15 -9 -6 -15 -42 -20 -70 -9 -13 5 -14 9 -5 20 9 11
6 14 -16 14 -22 0 -25 -3 -16 -14 9 -11 9 -15 -1 -18 -27 -9 -61 6 -72 32 -6
15 -17 25 -23 23z"/>
<path d="M1775 820 c-3 -5 -1 -10 4 -10 6 0 11 5 11 10 0 6 -2 10 -4 10 -3 0
-8 -4 -11 -10z"/>
<path d="M2234 811 c-52 -29 -86 -59 -73 -66 6 -4 14 -3 18 3 3 6 19 14 34 17
22 6 27 4 27 -11 0 -14 -3 -15 -8 -6 -9 13 -32 -47 -32 -84 0 -16 -2 -17 -10
-4 -8 12 -10 10 -10 -10 0 -14 -4 -31 -9 -39 -6 -9 -2 -20 10 -32 25 -25 26
-47 2 -28 -16 13 -17 12 -4 -3 7 -10 17 -15 22 -12 5 3 13 -5 18 -17 8 -23 8
-23 19 -3 7 13 8 24 1 31 -14 14 6 106 27 118 9 5 29 20 43 32 24 19 30 20 74
9 43 -11 85 -36 61 -36 -6 0 -19 -17 -30 -37 -10 -21 -48 -71 -83 -112 -36
-40 -58 -72 -49 -70 17 5 128 132 128 148 0 6 14 20 31 30 26 16 28 20 13 24
-17 3 -17 5 -2 11 9 4 35 -1 61 -13 25 -12 51 -21 56 -21 6 0 11 -8 11 -17 0
-15 -2 -16 -10 -3 -8 12 -10 11 -10 -6 0 -11 -11 -34 -25 -50 -25 -30 -28 -28
-26 16 l1 25 -12 -25 c-16 -32 -36 -47 -70 -55 -15 -4 -30 -10 -33 -15 -8 -13
68 12 88 28 33 29 17 -6 -18 -37 -20 -17 -30 -31 -23 -31 7 0 4 -6 -7 -12 -11
-6 -56 -12 -101 -12 -45 -1 -77 -4 -72 -7 6 -4 5 -9 -3 -12 -8 -2 16 -3 54 -1
40 2 67 0 67 -6 0 -6 -15 -10 -32 -11 -18 0 -51 -4 -73 -8 -35 -8 -31 -9 36
-10 l77 -1 71 66 c131 121 255 289 245 330 -3 12 0 25 6 29 9 5 10 1 5 -16
l-6 -24 20 25 c22 26 29 52 10 33 -6 -6 -18 -9 -25 -6 -8 3 -18 -6 -25 -24 -6
-15 -17 -41 -24 -58 -12 -27 -14 -27 -14 -7 -1 21 -21 33 -21 12 0 -5 -7 -10
-15 -10 -8 0 -24 -9 -35 -20 -11 -11 -27 -20 -35 -20 -8 0 -15 -4 -15 -10 0
-15 -32 -12 -55 6 -19 15 -21 19 -24 57 0 10 -5 16 -11 12 -5 -3 -7 -12 -4
-20 5 -11 -2 -13 -31 -10 -20 3 -44 9 -54 14 -14 9 -14 10 4 16 11 4 30 11 42
17 11 6 27 7 33 3 8 -5 11 -3 8 6 -3 8 -13 16 -23 17 -23 5 -105 -37 -105 -54
0 -8 -14 -21 -31 -30 -21 -10 -28 -19 -20 -23 8 -5 5 -13 -9 -26 -11 -10 -20
-26 -20 -36 0 -24 -16 -33 -24 -14 -3 9 3 32 14 53 11 20 20 43 20 50 0 7 5
22 10 33 9 15 15 17 30 9 17 -9 20 -7 20 14 0 19 -25 60 -33 55 -1 -1 -16 -9
-33 -18z m77 -101 c-13 -11 -28 -20 -35 -20 -6 0 0 9 14 20 33 26 52 25 21 0z
m323 -12 c-8 -28 -33 -58 -49 -58 -6 0 -17 6 -23 12 -10 10 -6 18 20 40 41 34
62 36 52 6z m-420 -128 c-6 -5 -24 21 -24 34 0 6 6 1 14 -10 8 -10 12 -21 10
-24z m193 -146 c-3 -3 -12 -4 -19 -1 -8 3 -5 6 6 6 11 1 17 -2 13 -5z"/>
<path d="M766 805 c-11 -8 -15 -15 -9 -15 6 0 16 7 23 15 16 19 11 19 -14 0z"/>
<path d="M1015 810 c3 -5 8 -10 11 -10 2 0 4 5 4 10 0 6 -5 10 -11 10 -5 0 -7
-4 -4 -10z"/>
<path d="M1696 795 c-3 -8 -1 -15 4 -15 6 0 10 7 10 15 0 8 -2 15 -4 15 -2 0
-6 -7 -10 -15z"/>
<path d="M1962 785 c-17 -19 -1 -19 24 0 14 11 15 14 4 14 -8 0 -21 -6 -28
-14z"/>
<path d="M815 780 c-3 -5 -1 -10 4 -10 6 0 11 5 11 10 0 6 -2 10 -4 10 -3 0
-8 -4 -11 -10z"/>
<path d="M1377 783 c-4 -3 -7 -11 -7 -17 0 -6 5 -5 12 2 6 6 9 14 7 17 -3 3
-9 2 -12 -2z"/>
<path d="M1657 773 c-12 -12 -7 -23 11 -24 9 0 12 -3 6 -5 -8 -3 -10 -21 -8
-47 5 -44 0 -39 -26 28 -11 28 -12 29 -25 12 -16 -22 -9 -48 10 -41 8 4 18 -8
26 -30 11 -31 14 -33 24 -18 7 9 15 31 18 47 4 17 10 41 13 54 6 21 4 22 -16
16 -15 -5 -20 -4 -16 4 8 12 -6 15 -17 4z"/>
<path d="M698 750 c-7 -11 -19 -20 -26 -20 -8 0 -12 -6 -9 -12 5 -17 89 -17
95 0 2 8 -5 10 -29 5 -25 -5 -31 -3 -27 8 2 8 15 20 29 26 24 13 24 13 2 13
-13 0 -28 -9 -35 -20z"/>
<path d="M775 760 c3 -5 11 -10 16 -10 6 0 7 5 4 10 -3 6 -11 10 -16 10 -6 0
-7 -4 -4 -10z"/>
<path d="M1780 746 c0 -9 5 -16 10 -16 6 0 10 4 10 9 0 6 -4 13 -10 16 -5 3
-10 -1 -10 -9z"/>
<path d="M2475 740 c-7 -22 0 -40 16 -40 6 0 6 7 1 18 -5 9 -7 23 -5 30 3 6 2
12 0 12 -3 0 -8 -9 -12 -20z"/>
<path d="M1381 724 c0 -11 3 -14 6 -6 3 7 2 16 -1 19 -3 4 -6 -2 -5 -13z"/>
<path d="M1710 672 c-9 -47 -9 -75 -3 -87 9 -15 10 -13 11 11 2 58 7 74 19 74
9 0 11 8 7 28 -12 51 -22 44 -34 -26z"/>
<path d="M2181 722 c-13 -24 -15 -49 -3 -38 4 4 7 11 7 14 0 4 4 13 9 20 4 7
6 16 3 19 -3 2 -10 -4 -16 -15z"/>
<path d="M2107 645 c3 -38 7 -83 10 -100 3 -16 7 -47 10 -68 3 -20 9 -40 14
-43 11 -7 11 10 -1 61 -5 22 -12 65 -15 95 -11 93 -25 136 -18 55z"/>
<path d="M2320 675 c-16 -9 -19 -14 -9 -15 8 0 24 7 35 15 24 18 7 19 -26 0z"/>
<path d="M1370 673 c0 -5 16 -21 35 -36 27 -21 35 -24 35 -12 0 8 -11 20 -25
25 -14 5 -25 14 -25 20 0 5 -4 10 -10 10 -5 0 -10 -3 -10 -7z"/>
<path d="M1794 665 c-10 -26 1 -35 13 -10 6 14 7 25 2 25 -5 0 -12 -7 -15 -15z"/>
<path d="M2395 669 c-37 -34 -107 -79 -114 -75 -5 3 -15 -2 -22 -12 -11 -14
-11 -15 0 -5 7 6 19 9 27 6 17 -6 136 79 124 90 -3 3 -9 1 -15 -4z"/>
<path d="M1920 660 c0 -5 5 -10 11 -10 5 0 7 5 4 10 -3 6 -8 10 -11 10 -2 0
-4 -4 -4 -10z"/>
<path d="M2278 634 c-16 -8 -28 -17 -28 -19 0 -5 70 22 79 30 10 11 -26 3 -51
-11z"/>
<path d="M920 596 c0 -34 4 -46 15 -46 10 0 15 10 15 31 0 17 -7 37 -15 45
-13 14 -15 10 -15 -30z"/>
<path d="M2435 610 c-3 -5 -2 -10 4 -10 5 0 13 5 16 10 3 6 2 10 -4 10 -5 0
-13 -4 -16 -10z"/>
<path d="M2505 610 c-3 -5 -1 -10 4 -10 6 0 11 5 11 10 0 6 -2 10 -4 10 -3 0
-8 -4 -11 -10z"/>
<path d="M2458 591 c-8 -10 -30 -29 -51 -41 -48 -29 -48 -36 1 -11 22 11 46
31 56 45 19 30 14 36 -6 7z"/>
<path d="M2348 593 c7 -3 16 -2 19 1 4 3 -2 6 -13 5 -11 0 -14 -3 -6 -6z"/>
<path d="M585 580 c3 -5 8 -10 11 -10 2 0 4 5 4 10 0 6 -5 10 -11 10 -5 0 -7
-4 -4 -10z"/>
<path d="M1805 580 c3 -5 8 -10 11 -10 2 0 4 5 4 10 0 6 -5 10 -11 10 -5 0 -7
-4 -4 -10z"/>
<path d="M2140 565 c0 -6 7 -21 16 -33 9 -13 13 -26 10 -29 -3 -3 2 -11 11
-18 9 -7 17 -19 19 -27 1 -9 5 -25 9 -37 4 -15 1 -23 -10 -27 -11 -5 -15 -14
-11 -30 4 -13 1 -24 -7 -27 -9 -4 -8 -8 3 -16 13 -9 12 -12 -5 -25 -11 -9 -28
-16 -38 -16 -10 0 -35 -9 -57 -20 -29 -15 -37 -24 -33 -38 3 -12 -2 -22 -12
-26 -13 -5 -16 -2 -11 9 3 10 2 13 -5 10 -6 -4 -13 3 -16 14 -7 26 -26 22 -32
-5 -6 -35 -22 -46 -41 -29 -15 13 -17 13 -17 0 0 -8 6 -15 14 -15 7 0 13 -6
13 -14 0 -17 -15 -15 -57 7 -46 25 -53 22 -53 -23 0 -22 4 -40 9 -40 5 0 51
14 102 30 116 38 264 111 264 130 1 8 5 42 10 75 5 33 9 71 10 85 4 39 4 40
23 40 9 0 -2 9 -25 20 -24 10 -43 23 -43 27 -1 12 -40 59 -40 48z m40 -293 c0
-4 -10 -13 -22 -21 -23 -14 -23 -14 -4 8 20 22 26 25 26 13z m-50 -31 c0 -11
-30 -19 -48 -14 -6 3 -10 9 -6 14 7 12 54 12 54 0z m-120 -40 c0 -5 -14 -16
-30 -25 -29 -14 -31 -9 -7 22 11 14 37 16 37 3z m-145 -41 c3 -5 3 -15 -1 -21
-6 -11 -23 6 -24 24 0 10 18 9 25 -3z"/>
<path d="M2298 563 c6 -2 18 -2 25 0 6 3 1 5 -13 5 -14 0 -19 -2 -12 -5z"/>
<path d="M1370 550 c0 -5 5 -10 10 -10 6 0 10 5 10 10 0 6 -4 10 -10 10 -5 0
-10 -4 -10 -10z"/>
<path d="M2263 553 c14 -4 16 -8 7 -18 -10 -12 -6 -12 20 -2 30 12 31 12 8 18
-13 4 -30 7 -38 7 -9 0 -8 -2 3 -5z"/>
<path d="M1715 540 c4 -6 11 -8 16 -5 14 9 11 15 -7 15 -8 0 -12 -5 -9 -10z"/>
<path d="M1930 540 c0 -5 10 -10 23 -10 18 0 19 2 7 10 -19 13 -30 13 -30 0z"/>
<path d="M2040 540 c0 -5 4 -10 9 -10 6 0 13 5 16 10 3 6 -1 10 -9 10 -9 0
-16 -4 -16 -10z"/>
<path d="M1017 510 c7 -39 35 -89 41 -72 2 6 -4 22 -14 36 -36 56 -2 21 81
-84 48 -61 90 -110 92 -110 6 0 10 -5 -93 124 -127 158 -115 147 -107 106z"/>
<path d="M1425 530 c3 -5 8 -10 11 -10 2 0 4 5 4 10 0 6 -5 10 -11 10 -5 0 -7
-4 -4 -10z"/>
<path d="M1590 530 c0 -11 38 -32 50 -28 5 2 -4 11 -20 20 -17 9 -30 13 -30 8z"/>
<path d="M1075 510 c10 -11 20 -20 23 -20 3 0 -3 9 -13 20 -10 11 -20 20 -23
20 -3 0 3 -9 13 -20z"/>
<path d="M1900 520 c-9 -6 -10 -10 -3 -10 6 0 15 5 18 10 8 12 4 12 -15 0z"/>
<path d="M2273 514 c-38 -16 -43 -25 -11 -16 16 4 19 2 13 -9 -5 -8 -4 -11 1
-6 5 5 8 11 6 14 -2 3 5 11 15 19 22 17 17 16 -24 -2z"/>
<path d="M1290 511 c0 -5 5 -13 10 -16 6 -3 10 -2 10 4 0 5 -4 13 -10 16 -5 3
-10 2 -10 -4z"/>
<path d="M2013 488 c-1 -18 1 -25 4 -15 5 19 30 17 26 -2 -2 -6 2 -11 7 -11 6
0 10 12 10 28 0 21 -2 24 -10 12 -9 -13 -14 -7 -11 13 0 4 -5 7 -12 7 -7 0
-13 -13 -14 -32z"/>
<path d="M1395 500 c-4 -6 1 -7 11 -3 13 5 16 3 11 -10 -3 -9 -2 -17 3 -17 6
0 10 9 10 20 0 21 -24 28 -35 10z"/>
<path d="M1920 495 c0 -8 6 -15 13 -15 8 0 14 7 14 15 0 8 -6 15 -14 15 -7 0
-13 -7 -13 -15z"/>
<path d="M1620 480 c8 -5 22 -9 30 -9 10 0 8 3 -5 9 -27 12 -43 12 -25 0z"/>
<path d="M1116 468 c5 -7 9 -18 10 -23 3 -17 67 -85 81 -85 7 0 13 -5 13 -11
0 -5 5 -7 10 -4 12 7 -12 35 -31 35 -7 0 -10 3 -6 6 7 7 -24 38 -48 48 -15 6
-17 9 -6 15 11 7 9 12 -9 21 -18 10 -21 10 -14 -2z"/>
<path d="M1331 469 c-1 -19 25 -33 34 -19 4 6 0 10 -9 10 -8 0 -17 6 -19 13
-4 7 -6 6 -6 -4z"/>
<path d="M1807 473 c-13 -12 -7 -23 11 -22 10 0 12 3 4 6 -6 2 -10 9 -6 14 6
10 0 12 -9 2z"/>
<path d="M624 459 c-7 -11 27 -11 45 0 9 6 5 9 -13 9 -15 0 -29 -4 -32 -9z"/>
<path d="M1900 460 c0 -5 5 -10 11 -10 5 0 7 5 4 10 -3 6 -8 10 -11 10 -2 0
-4 -4 -4 -10z"/>
<path d="M823 453 c-14 -5 -18 -23 -5 -23 5 0 17 7 28 15 14 11 15 14 4 14 -8
0 -21 -3 -27 -6z"/>
<path d="M1385 450 c3 -5 8 -10 11 -10 2 0 4 5 4 10 0 6 -5 10 -11 10 -5 0 -7
-4 -4 -10z"/>
<path d="M1460 456 c0 -2 7 -9 15 -16 12 -10 15 -10 15 4 0 9 -7 16 -15 16 -8
0 -15 -2 -15 -4z"/>
<path d="M1190 440 c-12 -8 -11 -10 6 -10 11 0 26 -6 34 -12 8 -7 6 -3 -4 10
-11 12 -20 22 -20 22 -1 0 -8 -5 -16 -10z"/>
<path d="M2002 436 c7 -8 15 -12 17 -11 5 6 -10 25 -20 25 -5 0 -4 -6 3 -14z"/>
<path d="M1420 436 c0 -2 7 -6 15 -10 8 -3 15 -1 15 4 0 6 -7 10 -15 10 -8 0
-15 -2 -15 -4z"/>
<path d="M1365 420 c3 -5 11 -10 16 -10 6 0 7 5 4 10 -3 6 -11 10 -16 10 -6 0
-7 -4 -4 -10z"/>
<path d="M1610 420 c8 -5 22 -9 30 -9 10 0 8 3 -5 9 -27 12 -43 12 -25 0z"/>
<path d="M1819 419 c-10 -6 -7 -9 14 -9 29 0 35 5 14 13 -8 3 -20 1 -28 -4z"/>
<path d="M1952 400 c0 -19 2 -27 5 -17 2 9 2 25 0 35 -3 9 -5 1 -5 -18z"/>
<path d="M1038 344 c-2 -51 1 -83 9 -93 11 -13 13 0 12 72 -2 109 -16 124 -21
21z"/>
<path d="M1655 400 c-6 -11 42 -26 52 -16 4 3 -5 7 -18 7 -21 1 -21 2 6 9 l30
8 -32 1 c-17 0 -35 -3 -38 -9z"/>
<path d="M2004 387 c1 -18 6 -22 23 -19 13 2 20 8 17 13 -3 5 -10 6 -16 3 -7
-5 -9 -1 -5 9 4 11 1 17 -7 17 -8 0 -13 -10 -12 -23z"/>
<path d="M1277 381 c-20 -13 -25 -21 -17 -26 8 -5 16 -1 22 9 11 20 28 21 28
1 0 -18 28 -34 51 -28 13 4 19 0 19 -13 0 -14 3 -15 12 -6 16 16 1 29 -35 34
-31 3 -37 23 -6 22 26 -1 11 13 -21 20 -15 3 -36 -2 -53 -13z"/>
<path d="M1405 390 c4 -6 11 -8 16 -5 14 9 11 15 -7 15 -8 0 -12 -5 -9 -10z"/>
<path d="M1629 381 c11 -7 11 -9 0 -14 -10 -4 -9 -6 3 -6 23 -1 32 15 12 23
-23 9 -31 7 -15 -3z"/>
<path d="M1898 365 c-5 -25 -4 -25 10 -11 12 11 13 19 5 27 -7 7 -12 3 -15
-16z"/>
<path d="M1577 369 c-16 -10 -17 -13 -4 -27 8 -10 17 -24 20 -32 3 -8 6 4 6
28 1 23 0 42 -1 42 -2 0 -11 -5 -21 -11z"/>
<path d="M1688 363 c7 -3 16 -2 19 1 4 3 -2 6 -13 5 -11 0 -14 -3 -6 -6z"/>
<path d="M2305 341 c-27 -16 -59 -39 -70 -51 l-20 -23 42 24 c41 23 113 78
103 79 -3 0 -27 -13 -55 -29z"/>
<path d="M1474 334 c15 -14 31 -23 34 -20 7 7 -38 46 -52 46 -6 0 2 -12 18
-26z"/>
<path d="M1632 343 c-13 -5 -7 -23 9 -23 6 0 7 5 3 11 -4 8 1 9 17 4 19 -5 21
-4 9 4 -16 12 -19 12 -38 4z"/>
<path d="M910 330 c0 -5 5 -10 10 -10 6 0 10 5 10 10 0 6 -4 10 -10 10 -5 0
-10 -4 -10 -10z"/>
<path d="M1280 330 c-8 -5 -11 -13 -6 -17 5 -4 11 -3 13 4 2 7 11 9 20 6 11
-4 14 -2 9 5 -9 14 -16 15 -36 2z"/>
<path d="M1991 332 c-21 -7 -11 -19 17 -19 16 0 29 5 29 12 0 10 -24 14 -46 7z"/>
<path d="M1228 318 c9 -9 15 -9 24 0 9 9 7 12 -12 12 -19 0 -21 -3 -12 -12z"/>
<path d="M1435 320 c3 -5 8 -10 11 -10 2 0 4 5 4 10 0 6 -5 10 -11 10 -5 0 -7
-4 -4 -10z"/>
<path d="M1903 322 c-8 -5 -9 -13 -3 -22 6 -8 10 -13 11 -10 0 3 2 13 4 23 4
19 4 19 -12 9z"/>
<path d="M890 290 c-18 -14 -20 -20 -9 -20 8 0 20 5 26 11 7 7 21 7 44 1 l34
-10 -29 -1 c-41 -1 -26 -12 26 -17 l43 -5 -25 24 c-35 35 -79 42 -110 17z"/>
<path d="M1952 280 c0 -14 2 -19 5 -12 2 6 2 18 0 25 -3 6 -5 1 -5 -13z"/>
<path d="M1987 281 c6 -23 32 -36 46 -22 11 11 -1 34 -14 25 -5 -3 -16 -1 -24
6 -11 9 -12 7 -8 -9z"/>
<path d="M1826 263 c-4 -9 -1 -23 7 -30 11 -11 17 -9 37 12 19 21 21 25 7 25
-9 0 -17 -4 -17 -10 0 -5 -5 -10 -11 -10 -5 0 -8 4 -4 9 3 5 1 12 -4 15 -5 3
-12 -2 -15 -11z"/>
<path d="M1910 230 c-12 -8 -11 -10 8 -10 12 0 22 5 22 10 0 13 -11 13 -30 0z"/>
<path d="M1490 156 c19 -7 39 -10 44 -7 13 6 -23 20 -54 20 -21 0 -20 -2 10
-13z"/>
</g>
</svg>
